<svg width="38" height="42" viewBox="0 0 38 42" fill="none" xmlns="http://www.w3.org/2000/svg">
<path d="M19 0C19.375 0 19.75 0.375 19.75 0.75V19.6875L35.7812 9.1875C36.1562 8.90625 36.625 9 36.8125 9.375C37.0938 9.75 37 10.2188 36.625 10.4062L20.3125 21L36.625 31.6875C37 31.875 37.0938 32.3438 36.8125 32.7188C36.625 33.0938 36.1562 33.1875 35.7812 32.9062L19.75 22.4062V41.25C19.75 41.7188 19.375 42 19 42C18.5312 42 18.25 41.7188 18.25 41.25V22.4062L2.125 32.9062C1.75 33.1875 1.28125 33.0938 1.09375 32.7188C0.8125 32.3438 0.90625 31.875 1.28125 31.6875L17.5938 21L1.28125 10.4062C0.90625 10.2188 0.8125 9.75 1.09375 9.375C1.28125 9 1.75 8.90625 2.125 9.1875L18.25 19.6875V0.75C18.25 0.375 18.5312 0 19 0Z" fill="white"/>
</svg>
