<svg fill="none" height="268" viewBox="0 0 1912 268" width="1912" xmlns="http://www.w3.org/2000/svg"><g fill="#363636"><path d="m1218.11 266.693c1.43 0 1.99 0 1.43.653-.57 0-1.99.654-3.13.654-1.42 0-1.99 0-1.42-.654.57-.653 1.99-.653 3.12-.653z"/><path d="m1228.34 262.771c1.42 0 1.99 0 1.42.654-.56 0-1.98.653-3.41.653-1.42 0-1.98 0-1.42-.653.57-.654 1.99-.654 3.41-.654z"/><path d="m1239.42 258.195c1.43 0 1.99 0 1.43.654-.57 0-2.28.653-3.7.653s-1.99.001-1.42-.653c.57 0 2.27-.654 3.69-.654z"/><path d="m1251.36 253.619c1.42 0 2.27 0 1.7.654-.56 0-2.27.654-3.69.654s-2.27 0-1.71-.654c.29 0 1.99-.654 3.7-.654z"/><path d="m1264.14 249.044c1.43 0 2.28 0 1.71.654-.57 0-2.56.653-3.98.653s-2.27 0-1.7-.653c.85-.654 2.55-.654 3.97-.654z"/><path d="m1278.64 243.161c1.7 0 2.27 0 1.7.654-.85 0-2.56.653-4.26.653-1.71 0-2.27 0-1.71-.653.57 0 2.56-.654 4.27-.654z"/><path d="m1294.26 237.278c1.71 0 2.56 0 1.71.653-.85 0-2.84.654-4.55.654-1.7 0-2.56 0-1.7-.654.85-.653 2.84-.653 4.54-.653z"/><path d="m1311.6 230.742c1.7 0 2.55 0 1.7.653-.85.654-3.13.654-4.83.654s-2.56 0-1.7-.654c.85-.653 3.12-.653 4.83-.653z"/><path d="m1330.92 222.898c1.99 0 2.55 0 1.7.653-1.14.654-3.41.654-5.11.654-1.99 0-2.56 0-1.71-.654.85 0 3.13-.653 5.12-.653z"/><path d="m1352.51 215.054c1.99 0 2.84.653 1.71.653-1.14.654-3.7.654-5.69.654s-2.84-.654-1.7-.654c1.13-.653 3.69-.653 5.68-.653z"/><path d="m1376.66 205.249c2.28 0 2.84.653 1.71.653-1.14.654-3.98.654-6.25.654-1.99 0-2.85-.654-1.71-.654 1.42 0 4.26-.653 6.25-.653z"/><path d="m1404.22 194.79c2.28 0 2.84.654 1.42 1.308-1.42.653-4.54.653-6.53.653-2.27 0-2.84-.653-1.42-.653 1.13-.654 4.26-1.308 6.53-1.308z"/><path d="m1435.76 182.371c2.56 0 3.13.653 1.42 1.307-1.7.654-4.83 1.307-7.38 1.307-2.56 0-3.13-.653-1.43-1.307 1.43-.654 4.84-1.307 7.39-1.307z"/><path d="m1472.13 168.644c2.56 0 3.13.653 1.42 1.307-1.99.654-5.68 1.307-8.24 1.307-2.55 0-3.12-.653-1.42-1.307 1.71-.654 5.4-1.307 8.24-1.307z"/><path d="m1514.47 152.302c2.84 0 3.41.654 1.13 1.307-2.27.654-6.25 1.308-9.09 1.308s-3.41-.654-1.13-1.308c1.98-.653 6.25-1.307 9.09-1.307z"/><path d="m1564.48 132.693c3.12 0 3.41.653.85 1.961-2.56 1.307-7.39 1.961-10.23 1.961-3.13 0-3.41-.654-.85-1.961 2.55-.654 7.1-1.961 10.23-1.961z"/><path d="m1624.71 109.815c3.41 0 3.7 1.307.29 1.961-3.13 1.307-8.53 1.961-11.94 1.961s-3.69-.654-.57-1.961c3.41-1.307 8.81-1.961 12.22-1.961z"/><path d="m1698.3 81.0535c3.7 0 3.7 1.3073-.28 2.6146s-10.23 2.6146-13.92 2.6146c-3.7 0-3.7-1.3073.28-2.6146s10.23-2.6146 13.92-2.6146z"/><path d="m1790.36 45.7559c4.26 0 3.7 1.3073-1.42 3.2683-4.83 1.961-12.22 3.2683-16.48 3.2683s-3.69-1.3073 1.14-3.2683c5.11-1.961 12.5-3.2683 16.76-3.2683z"/><path d="m1909.13-.00015424c4.83-.00000043 3.41 1.96095424-3.12 4.57559424-6.54 2.61463-15.63 4.57568-20.46 4.57569-4.83 0-3.7-1.96106 2.84-4.57569 6.53-2.61464 15.91-4.57559382 20.74-4.57559424z"/><path d="m1190.84 266.693c1.42 0 1.99 0 1.7.653-.57 0-1.7.654-3.12.654s-1.99 0-1.71-.654c.57-.653 1.99-.653 3.13-.653z"/><path d="m1199.93 262.771c1.42 0 1.99 0 1.7.654-.56 0-1.98.653-3.4.653-1.43 0-1.99 0-1.71-.653.57-.654 1.99-.654 3.41-.654z"/><path d="m1209.87 258.195c1.43 0 2.28 0 1.71.654-.57 0-1.99.653-3.41.653s-2.27.001-1.7-.653c.28 0 1.98-.654 3.4-.654z"/><path d="m1220.39 253.619c1.42 0 2.27 0 1.7.654-.57 0-2.27.654-3.69.654s-2.27 0-1.71-.654c.57 0 2.28-.654 3.7-.654z"/><path d="m1232.04 249.044c1.42 0 2.27 0 1.7.654-.57 0-2.27.653-3.98.653-1.42 0-2.27 0-1.7-.653.57-.654 2.56-.654 3.98-.654z"/><path d="m1244.82 243.161c1.71 0 2.28 0 1.71.654-.57 0-2.56.653-3.98.653-1.7 0-2.27 0-1.7-.653.56 0 2.27-.654 3.97-.654z"/><path d="m1258.75 237.278c1.7 0 2.55 0 1.7.653-.85 0-2.56.654-4.26.654-1.71 0-2.56 0-1.71-.654.57-.653 2.56-.653 4.27-.653z"/><path d="m1274.37 230.742c1.71 0 2.56 0 1.71.653-.85.654-2.84.654-4.55.654-1.7 0-2.56 0-1.7-.654.57-.653 2.55-.653 4.54-.653z"/><path d="m1291.42 222.898c1.99 0 2.84 0 1.71.653-.86.654-3.13.654-5.12.654s-2.84 0-1.7-.654c.85 0 3.12-.653 5.11-.653z"/><path d="m1310.74 215.054c1.99 0 2.84.653 1.71.653-1.14.654-3.41.654-5.4.654s-2.84-.654-1.71-.654c.86-.653 3.41-.653 5.4-.653z"/><path d="m1332.34 205.249c2.27 0 2.84.653 1.7.653-1.13.654-3.69.654-5.96.654-1.99 0-2.85-.654-1.71-.654s3.69-.653 5.97-.653z"/><path d="m1356.77 194.79c2.28 0 3.13.654 1.71 1.308-1.14.653-4.26.653-6.54.653-2.27 0-3.12-.653-1.7-.653 1.42-.654 4.26-1.308 6.53-1.308z"/><path d="m1384.9 183.024c2.56 0 3.13.654 1.71 1.308-1.42.653-4.55 1.307-7.11 1.307-2.27 0-3.12-.654-1.7-1.307 1.42-1.308 4.54-1.308 7.1-1.308z"/><path d="m1417.29 168.644c2.56 0 3.41.653 1.71 1.307-1.71.654-5.12 1.307-7.67 1.307-2.56 0-3.41-.653-1.71-1.307 1.42-.654 5.12-1.307 7.67-1.307z"/><path d="m1455.08 152.302c2.84 0 3.41.654 1.42 1.307-1.98.654-5.96 1.308-8.8 1.308-2.85 0-3.41-.654-1.71-1.308 2.27-.653 6.25-1.307 9.09-1.307z"/><path d="m1499.69 133.346c3.13 0 3.7.654 1.42 1.961-2.27 1.307-6.82 1.961-9.94 1.961-3.13 0-3.7-.654-1.42-1.961 2.27-1.307 6.82-1.961 9.94-1.961z"/><path d="m1553.39 109.815c3.41 0 3.98 1.307.86 1.961-2.84 1.307-7.96 1.961-11.37 1.961s-3.98-.654-1.14-1.961c3.13-.654 8.24-1.961 11.65-1.961z"/><path d="m1619.03 81.707c3.69 0 3.98 1.3074.57 2.6147s-9.38 2.6146-13.07 2.6146c-3.7 0-3.98-1.3073-.57-2.6146 3.12-1.3073 9.09-2.6147 13.07-2.6147z"/><path d="m1701.14 46.4097c4.27 0 3.98 1.3073-.28 3.2683-4.55 1.961-11.36 3.2683-15.63 3.2683-4.26 0-4.26-1.3073.29-3.2683 4.26-1.961 11.36-3.2683 15.62-3.2683z"/><path d="m1806.84.653753c4.83-.000001 3.98 1.960957-1.7 4.575587-5.68 2.61464-14.21 4.57559-19.04 4.57559s-4.26-1.96095 1.42-4.57559c5.68-2.61463 14.21-4.575587 19.32-4.575587z"/><path d="m1163.84 266.693c1.43 0 1.99 0 1.71.653-.28 0-1.71.654-3.13.654s-1.98 0-1.7-.654c.28-.653 1.7-.653 3.12-.653z"/><path d="m1171.8 262.771c1.42 0 2.27 0 1.71.654-.29 0-1.99.653-3.13.653-1.42 0-2.27 0-1.7-.653.28-.654 1.7-.654 3.12-.654z"/><path d="m1180.32 258.195c1.43 0 2.28 0 1.71.654-.57 0-1.99.653-3.41.653s-2.27.001-1.7-.653c.28 0 1.98-.654 3.4-.654z"/><path d="m1189.7 253.619c1.42 0 2.27 0 1.71.654-.57 0-1.99.654-3.7.654-1.42 0-2.27 0-1.7-.654.57 0 2.27-.654 3.69-.654z"/><path d="m1199.93 249.044c1.42 0 2.27 0 1.99.654-.57 0-2.27.653-3.69.653-1.43 0-2.28 0-1.99-.653.28-.654 1.99-.654 3.69-.654z"/><path d="m1211.01 243.161c1.71 0 2.56 0 1.99.654-.57 0-2.27.653-3.98.653-1.7 0-2.55 0-1.99-.653.57 0 2.28-.654 3.98-.654z"/><path d="m1223.23 237.278c1.7 0 2.56 0 1.99.653-.57 0-2.56.654-4.26.654-1.71 0-2.56 0-1.99-.654.85-.653 2.55-.653 4.26-.653z"/><path d="m1236.87 230.742c1.7 0 2.55 0 1.99.653-.86.654-2.84.654-4.55.654-1.7 0-2.56 0-1.99-.654.85-.653 2.84-.653 4.55-.653z"/><path d="m1251.93 222.898c1.99 0 2.84 0 1.99.653-.86.654-2.85.654-4.83.654-1.99 0-2.85 0-1.99-.654.85 0 3.12-.653 4.83-.653z"/><path d="m1268.97 215.054c1.99 0 2.85.653 1.99.653-.85.654-3.12.654-5.11.654s-2.84-.654-1.99-.654c.85-.653 3.13-.653 5.11-.653z"/><path d="m1288.01 205.249c2.28 0 3.13.653 1.99.653-1.14.654-3.41.654-5.68.654-1.99 0-3.13-.654-1.99-.654.85 0 3.41-.653 5.68-.653z"/><path d="m1309.61 194.79c2.27 0 3.12.654 1.99 1.308-1.14.653-3.98.653-6.26.653-2.27 0-3.12-.653-1.98-.653 1.13-.654 3.97-1.308 6.25-1.308z"/><path d="m1334.04 183.024c2.56 0 3.41.654 1.99 1.308-1.42.653-4.26 1.307-6.82 1.307-2.27 0-3.41-.654-1.99-1.307 1.42-.654 4.55-1.308 6.82-1.308z"/><path d="m1362.46 168.644c2.55 0 3.41.653 1.98 1.307-1.42.654-4.83 1.307-7.38 1.307-2.56 0-3.41-.653-1.99-1.307s4.83-1.307 7.39-1.307z"/><path d="m1395.7 152.302c2.84 0 3.69.654 1.99 1.307-1.71.654-5.4 1.308-8.24 1.308s-3.7-.654-1.99-1.308c1.7-.653 5.4-1.307 8.24-1.307z"/><path d="m1434.91 133.346c3.13 0 3.98.654 1.7 1.961-1.98 1.307-6.25 1.961-9.37 1.961-3.13 0-3.98-.654-1.99-1.961 2.56-1.307 6.53-1.961 9.66-1.961z"/><path d="m1482.08 110.468c3.41 0 4.26 1.308 1.7 1.961-2.56 1.308-7.39 1.961-10.51 1.961-3.41 0-4.26-.653-1.71-1.961 2.28-1.307 7.11-1.961 10.52-1.961z"/><path d="m1539.76 81.7072c3.69 0 4.26 1.3074 1.13 2.6147-3.12 1.3073-8.52 2.6146-12.22 2.6146-3.69 0-4.26-1.3073-1.42-2.6146 3.13-1.3073 8.53-2.6147 12.51-2.6147z"/><path d="m1611.93 46.4097c4.26 0 4.54 1.3073.56 3.2683-3.97 1.961-10.51 3.2683-14.49 3.2683-4.26 0-4.54-1.3073-.85-3.2683s10.23-3.2683 14.78-3.2683z"/><path d="m1704.55.653753c4.83-.000001 4.55 1.960957-.56 4.575587-5.12 2.61464-13.07 4.57559-17.9 4.57559s-4.83-1.96095.28-4.57559c5.11-2.61463 13.35-4.575587 18.18-4.575587z"/><path d="m1136.57 266.693c1.42 0 1.99 0 1.7.653-.28 0-1.7.654-2.84.654-1.42 0-1.99 0-1.7-.654 0-.653 1.42-.653 2.84-.653z"/><path d="m1143.39 262.771c1.42 0 2.27 0 1.7.654-.28 0-1.7.653-3.12.653s-2.28 0-1.71-.653c.29-.654 1.71-.654 3.13-.654z"/><path d="m1150.77 258.195c1.43 0 2.28 0 1.99.654-.28 0-1.99.653-3.12.653-1.42 0-2.27.001-1.99-.653.28 0 1.7-.654 3.12-.654z"/><path d="m1158.73 253.619c1.42 0 2.27 0 1.99.654-.28 0-1.99.654-3.41.654s-2.27 0-1.99-.654c.57 0 1.99-.654 3.41-.654z"/><path d="m1167.54 249.044c1.42 0 2.56 0 1.99.654-.57 0-1.99.653-3.7.653-1.42 0-2.55 0-1.99-.653.57-.654 2.28-.654 3.7-.654z"/><path d="m1177.2 243.161c1.7 0 2.56 0 1.99.654-.57 0-2.27.653-3.98.653-1.7 0-2.56 0-1.99-.653.85 0 2.56-.654 3.98-.654z"/><path d="m1188 237.278c1.7 0 2.55 0 1.99.653-.57 0-2.28.654-3.98.654-1.71 0-2.56 0-1.99-.654.28 0 2.27-.653 3.98-.653z"/><path d="m1199.65 230.742c1.7 0 2.84 0 2.27.653-.57.654-2.56.654-4.26.654-1.71 0-2.84 0-2.28-.654.57-.653 2.56-.653 4.27-.653z"/><path d="m1212.72 223.551c1.99 0 2.84 0 2.27.654s-2.84.654-4.55.654c-1.99 0-2.84 0-2.27-.654s2.56-.654 4.55-.654z"/><path d="m1227.21 215.054c1.99 0 3.12.653 2.27.653-.85.654-3.13.654-5.11.654-1.99 0-3.13-.654-2.28-.654.86-.653 3.13-.653 5.12-.653z"/><path d="m1243.69 205.903c2.27 0 3.12.653 2.27.653-.85.654-3.41.654-5.4.654s-3.12-.654-2.27-.654c.85-.653 3.12-.653 5.4-.653z"/><path d="m1262.16 194.79c2.27 0 3.41.654 2.27 1.308-.85.653-3.69.653-5.97.653-2.27 0-3.41-.653-2.27-.653 1.14-.654 3.69-1.308 5.97-1.308z"/><path d="m1283.47 183.024c2.55 0 3.41.654 2.27 1.308-1.14.653-3.98 1.307-6.25 1.307-2.28 0-3.41-.654-2.28-1.307.86-.654 3.7-1.308 6.26-1.308z"/><path d="m1307.9 169.298c2.56 0 3.7.653 2.27 1.307-1.42.654-4.54 1.307-7.1 1.307s-3.69-.653-2.56-1.307c1.71-1.307 4.83-1.307 7.39-1.307z"/><path d="m1336.6 152.956c2.84 0 3.98.654 2.27 1.308-1.42.653-5.11 1.307-7.95 1.307s-3.98-.654-2.56-1.307c1.7-.654 5.4-1.308 8.24-1.308z"/><path d="m1370.41 133.346c3.13 0 4.26.654 2.27 1.961-1.7 1.307-5.68 1.961-8.8 1.961-3.13 0-4.27-.654-2.28-1.961 1.71-1.307 5.69-1.961 8.81-1.961z"/><path d="m1411.04 110.468c3.41 0 4.55 1.308 2.28 1.961-2.28 1.308-6.54 1.961-9.95 1.961s-4.26-.653-2.27-1.961c1.99-1.307 6.53-1.961 9.94-1.961z"/><path d="m1460.77 82.3608c3.69 0 4.54 1.3073 1.99 2.6146-2.56 1.3073-7.96 2.6147-11.65 2.6147-3.7 0-4.55-1.3074-1.99-2.6147 2.55-1.3073 7.67-2.6146 11.65-2.6146z"/><path d="m1522.71 47.0633c4.26 0 4.83 1.3073 1.42 3.2683-3.41 1.9609-9.38 3.2683-13.64 3.2683s-4.83-1.3074-1.7-3.2683c3.4-1.961 9.66-3.2683 13.92-3.2683z"/><path d="m1602.55 1.30722c4.83 0 5.11 1.96105.85 4.57569-4.26 2.61463-11.65 4.57559-16.48 4.57559s-5.11-1.96096-.85-4.57559c3.98-2.61463 11.65-4.57569 16.48-4.57569z"/><path d="m1109.29 266.693c1.42 0 2.27 0 1.99.653-.28 0-1.71.654-2.84.654-1.42 0-2.27 0-1.99-.654.28-.653 1.42-.653 2.84-.653z"/><path d="m1114.97 262.771c1.42 0 2.28 0 1.99.654-.28 0-1.7.653-3.12.653s-2.28 0-1.99-.653c.57-.654 1.99-.654 3.12-.654z"/><path d="m1121.22 258.849c1.43 0 2.28 0 1.99.653-.28 0-1.7.654-3.12.654s-2.27 0-1.99-.654c.28-.653 1.7-.653 3.12-.653z"/><path d="m1128.04 254.274c1.42 0 2.28-.001 1.99.653-.28 0-1.7.654-3.41.654-1.42 0-2.27 0-1.99-.654.57-.654 1.99-.653 3.41-.653z"/><path d="m1135.43 249.044c1.42 0 2.56 0 1.99.654-.28 0-1.99.653-3.41.653s-2.56 0-1.99-.653c.29-.654 1.99-.654 3.41-.654z"/><path d="m1143.67 243.161c1.71 0 2.56 0 2.27.654-.56 0-1.98.653-3.69.653-1.7 0-2.56 0-2.27-.653.28 0 1.99-.654 3.69-.654z"/><path d="m1152.48 237.278c1.7 0 2.84 0 2.27.653-.57 0-2.27.654-3.98.654-1.7 0-2.55 0-2.27-.654.57 0 2.27-.653 3.98-.653z"/><path d="m1162.42 230.742c1.71 0 2.85 0 2.28.653-.57 0-2.28.654-4.26.654-1.71 0-2.85 0-2.28-.654.57-.653 2.56-.653 4.26-.653z"/><path d="m1173.22 223.551c1.99 0 2.84 0 2.27.654-.56.654-2.55.654-4.54.654s-2.84 0-2.27-.654c.85-.654 2.84-.654 4.54-.654z"/><path d="m1185.72 215.054c1.99 0 3.13.653 2.56.653-.57.654-2.84.654-4.83.654s-3.13-.654-2.56-.654 2.56-.653 4.83-.653z"/><path d="m1199.36 205.903c2.27 0 3.41.653 2.56.653-.85.654-3.13.654-5.12.654-1.98 0-3.12-.654-2.55-.654.57-.653 3.12-.653 5.11-.653z"/><path d="m1214.99 195.444c2.27 0 3.41.654 2.56 1.307-.86.654-3.41.654-5.69.654-2.27 0-3.41-.654-2.55-.654.85-1.307 3.41-1.307 5.68-1.307z"/><path d="m1232.89 183.024c2.56 0 3.69.654 2.56 1.308-.86.653-3.7 1.307-5.97 1.307s-3.69-.654-2.84-1.307c1.14-.654 3.69-1.308 6.25-1.308z"/><path d="m1253.35 169.298c2.55 0 3.98.653 2.84 1.307s-3.98 1.307-6.54 1.307c-2.55 0-3.97-.653-2.84-1.307.85-.654 3.98-1.307 6.54-1.307z"/><path d="m1277.5 152.956c2.84 0 3.98.654 2.84 1.308-1.42.653-4.55 1.307-7.39 1.307s-3.98-.654-2.84-1.307c1.14-.654 4.55-1.308 7.39-1.308z"/><path d="m1305.91 133.346c3.13 0 4.26.654 2.84 1.961s-5.11 1.961-8.24 1.961c-3.12 0-4.26-.654-2.84-1.961 1.42-.654 5.12-1.961 8.24-1.961z"/><path d="m1340.01 110.468c3.41 0 4.54 1.308 2.84 1.961-1.7 1.308-5.97 1.961-9.38 1.961s-4.54-.653-2.84-1.961c1.71-.653 5.97-1.961 9.38-1.961z"/><path d="m1381.78 82.3608c3.69 0 5.11 1.3073 2.84 2.6146-2.28 1.3073-7.11 2.6147-10.8 2.6147s-5.11-1.3074-2.84-2.6147c1.99-1.3073 6.82-2.6146 10.8-2.6146z"/><path d="m1433.77 47.0633c4.27 0 5.4 1.3073 2.56 3.2683-2.84 1.9609-8.52 3.2683-12.79 3.2683-4.26 0-5.39-1.3074-2.55-3.2683 2.84-1.961 8.52-3.2683 12.78-3.2683z"/><path d="m1500.83 1.96088c4.83 0 5.68 1.96096 1.99 4.57559-3.7 2.61464-10.51 4.57563-15.35 4.57563-4.83 0-5.68-1.96099-2.27-4.57563 3.98-2.61463 10.8-4.57559 15.63-4.57559z"/><path d="m1082.01 266.693c1.42 0 2.28 0 1.99 0-.28 0-1.42.653-2.84.653s-2.27 0-1.99-.653z"/><path d="m1086.84 262.771c1.43 0 2.28 0 1.99.654-.28 0-1.42.653-2.84.653s-2.27 0-1.99-.653c0-.654 1.42-.654 2.84-.654z"/><path d="m1091.96 258.849c1.42 0 2.27 0 1.99.653-.29 0-1.71.654-3.13.654s-2.27 0-1.99-.654c.29-.653 1.71-.653 3.13-.653z"/><path d="m1097.36 254.274c1.42 0 2.55-.001 2.27.653-.28 0-1.7.654-3.13.654-1.42 0-2.55 0-2.27-.654.29-.654 1.71-.653 3.13-.653z"/><path d="m1103.32 249.044c1.42 0 2.56 0 2.28.654-.29 0-1.71.653-3.41.653-1.42 0-2.56 0-2.28-.653.29-.654 1.99-.654 3.41-.654z"/><path d="m1109.86 243.815c1.7 0 2.56 0 2.27.653-.28 0-1.99.654-3.69.654-1.71 0-2.56 0-2.27-.654.56-.653 2.27-.653 3.69-.653z"/><path d="m1117.25 237.278c1.7 0 2.84 0 2.27.653-.28 0-1.99.654-3.69.654-1.71 0-2.85 0-2.28-.654.29 0 1.99-.653 3.7-.653z"/><path d="m1125.2 230.742c1.71 0 2.84 0 2.56.653-.28.654-2.27.654-3.98.654-1.7 0-2.84 0-2.56-.654.29 0 2.28-.653 3.98-.653z"/><path d="m1134.01 223.551c1.99 0 3.13 0 2.56.654s-2.28.654-4.26.654c-1.99 0-3.13 0-2.56-.654s2.27-.654 4.26-.654z"/><path d="m1143.96 215.054c1.98 0 3.12.653 2.55.653-.57.654-2.55.654-4.54.654s-3.13-.654-2.56-.654 2.56-.653 4.55-.653z"/><path d="m1155.04 205.903c2.27 0 3.41.653 2.84.653-.57.654-2.84.654-4.83.654s-3.41-.654-2.84-.654c.56-.653 2.84-.653 4.83-.653z"/><path d="m1167.82 195.444c2.28 0 3.7.654 2.84 1.307-.56.654-3.12.654-5.39.654-2.28 0-3.7-.654-2.85-.654.86-1.307 3.13-1.307 5.4-1.307z"/><path d="m1182.31 183.024c2.56 0 3.7.654 3.13 1.308-.85.653-3.41 1.307-5.68 1.307-2.28 0-3.7-.654-3.13-1.307.57-.654 3.13-1.308 5.68-1.308z"/><path d="m1199.08 169.298c2.55 0 3.98.653 3.12 1.307-.85.654-3.69 1.307-6.25 1.307s-3.98-.653-3.12-1.307c.56-.654 3.41-1.307 6.25-1.307z"/><path d="m1218.4 152.956c2.84 0 4.26.654 3.12 1.308-1.13.653-4.26 1.307-7.1 1.307s-4.26-.654-3.41-1.307c1.42-.654 4.55-1.308 7.39-1.308z"/><path d="m1241.41 134c3.13 0 4.55.653 3.41 1.961-1.13 1.307-4.83 1.961-7.67 1.961-3.12 0-4.54-.654-3.41-1.961 1.14-1.308 4.55-1.961 7.67-1.961z"/><path d="m1268.97 110.468c3.41 0 4.84 1.308 3.41 1.961-1.42 1.308-5.39 1.961-8.8 1.961s-4.83-.653-3.41-1.961c1.42-.653 5.4-1.961 8.8-1.961z"/><path d="m1302.79 82.3608c3.69 0 5.4 1.3073 3.41 2.6146-1.71 1.3073-6.25 2.6147-9.95 2.6147-3.69 0-5.4-1.3074-3.69-2.6147 1.99-1.3073 6.53-2.6146 10.23-2.6146z"/><path d="m1345.12 47.7168c4.27 0 5.69 1.3073 3.41 3.2683-2.27 1.961-7.67 3.2683-11.65 3.2683-4.26 0-5.68-1.3073-3.69-3.2683 2.27-1.9609 7.67-3.2683 11.93-3.2683z"/><path d="m1399.39 1.96088c4.83 0 6.25 1.96096 3.41 4.57559-3.12 2.61464-9.37 4.57563-13.92 4.57563-4.83 0-6.25-1.96099-3.41-4.57563 2.56-2.61463 9.09-4.57559 13.92-4.57559z"/><path d="m1055.02 266.693c1.42 0 2.27 0 1.99 0s-1.42.653-2.56.653c-1.42 0-2.27 0-1.99-.653z"/><path d="m1058.43 262.771c1.42 0 2.27 0 1.99.654-.28 0-1.42.653-2.84.653s-2.27 0-1.99-.653c.28-.654 1.7-.654 2.84-.654z"/><path d="m1062.41 258.849c1.42 0 2.27 0 2.27.653-.28 0-1.42.654-2.84.654s-2.27 0-2.27-.654c0-.653 1.42-.653 2.84-.653z"/><path d="m1066.67 254.274c1.42 0 2.56-.001 2.27.653-.28 0-1.7.654-3.12.654s-2.56 0-2.27-.654c.28-.654 1.7-.653 3.12-.653z"/><path d="m1071.22 249.044c1.42 0 2.55 0 2.27.654-.28 0-1.7.653-3.13.653-1.42 0-2.55 0-2.27-.653.29-.654 1.71-.654 3.13-.654z"/><path d="m1076.33 243.815c1.71 0 2.84 0 2.56.653-.29 0-1.71.654-3.41.654-1.71 0-2.84 0-2.56-.654.29-.653 1.71-.653 3.41-.653z"/><path d="m1081.73 237.278c1.7 0 2.84 0 2.56.653-.29 0-1.99.654-3.7.654-1.7 0-2.84 0-2.55-.654.56 0 1.99-.653 3.69-.653z"/><path d="m1087.98 230.742c1.71 0 3.13 0 2.56.653-.29.654-1.99.654-3.7.654-1.7 0-2.84 0-2.55-.654.28 0 1.99-.653 3.69-.653z"/><path d="m1094.8 223.551c1.99 0 3.13 0 2.84.654-.28.654-2.27.654-3.98.654-1.99 0-3.12 0-2.84-.654.29-.654 1.99-.654 3.98-.654z"/><path d="m1102.47 215.054c1.99 0 3.41.653 2.84.653-.28.654-2.27.654-4.26.654s-3.41-.654-2.84-.654c.28 0 2.27-.653 4.26-.653z"/><path d="m1111 205.903c2.27 0 3.41.653 3.12.653-.57.654-2.56.654-4.54.654-1.99 0-3.41-.654-3.13-.654s2.27-.653 4.55-.653z"/><path d="m1120.66 195.444c2.27 0 3.69.654 3.12 1.307-.57.654-2.84.654-5.11.654-2.28 0-3.7-.654-3.13-.654.57-.653 2.84-1.307 5.12-1.307z"/><path d="m1131.74 183.024c2.55 0 3.98.654 3.41 1.308-.57.653-3.13 1.307-5.4 1.307s-3.98-.654-3.41-1.307c.57-.654 3.12-1.308 5.4-1.308z"/><path d="m1144.52 169.298c2.56 0 4.27.653 3.41 1.307-.56.654-3.41 1.307-5.96 1.307-2.56 0-4.27-.653-3.41-1.307.57-.654 3.41-1.307 5.96-1.307z"/><path d="m1159.58 152.956c2.84 0 4.55.654 3.7 1.308-.86.653-3.7 1.307-6.54 1.307s-4.54-.654-3.69-1.307c.57-.654 3.69-1.308 6.53-1.308z"/><path d="m1177.2 134c3.12 0 4.83.654 3.98 1.961-.86 1.307-4.26 1.961-7.39 1.961s-4.83-.654-3.98-1.961 4.26-1.961 7.39-1.961z"/><path d="m1198.23 111.122c3.4 0 5.11 1.308 3.97 1.961-1.13 1.308-4.83 1.961-8.24 1.961s-5.11-.653-3.97-1.961c1.13-1.307 4.83-1.961 8.24-1.961z"/><path d="m1224.08 83.0144c3.7 0 5.68 1.3073 4.26 2.6147-1.42 1.3073-5.68 2.6146-9.37 2.6146-3.7 0-5.69-1.3073-4.26-2.6146 1.42-1.3074 5.68-2.6147 9.37-2.6147z"/><path d="m1256.47 47.7168c4.27 0 6.25 1.3073 4.55 3.2683-1.71 1.961-6.54 3.2683-10.8 3.2683s-6.25-1.3073-4.54-3.2683c1.7-1.9609 6.53-3.2683 10.79-3.2683z"/><path d="m1298.24 2.61469c4.83 0 6.82 1.96095 4.55 4.57559-2.28 2.61463-7.96 4.57562-12.79 4.57562s-6.82-1.96098-4.55-4.57562c1.99-2.61463 7.96-4.57559 12.79-4.57559z"/><path d="m1027.74 266.693c1.42 0 2.28 0 2.28.653 0 0-1.42.654-2.56.654-1.42 0-2.27 0-2.27-.654 0-.653 1.42-.653 2.55-.653z"/><path d="m1030.3 262.771c1.42 0 2.27 0 2.27.654 0 0-1.42.653-2.84.653s-2.27 0-2.27-.653c.28-.654 1.42-.654 2.84-.654z"/><path d="m1033.14 258.849c1.42 0 2.56 0 2.28.653-.29 0-1.42.654-2.85.654-1.42 0-2.55 0-2.27-.654 0-.653 1.42-.653 2.84-.653z"/><path d="m1035.98 254.274c1.42 0 2.56-.001 2.28.653-.29 0-1.42.654-2.84.654s-2.56 0-2.28-.654c0-.654 1.42-.653 2.84-.653z"/><path d="m1039.11 249.044c1.42 0 2.56 0 2.56.654-.29 0-1.71.653-3.13.653s-2.56 0-2.56-.653c.29-.654 1.71-.654 3.13-.654z"/><path d="m1042.8 243.815c1.71 0 2.84 0 2.56.653-.28 0-1.7.654-3.41.654-1.7 0-2.84 0-2.56-.654.29-.653 1.71-.653 3.41-.653z"/><path d="m1046.5 237.278c1.7 0 2.84 0 2.55.653-.28 0-1.7.654-3.41.654-1.7 0-2.84 0-2.84-.654.57 0 1.99-.653 3.7-.653z"/><path d="m1050.76 230.742c1.7 0 3.12 0 2.84.653-.28.654-1.99.654-3.69.654-1.71 0-3.13 0-2.84-.654.28 0 1.98-.653 3.69-.653z"/><path d="m1055.59 223.551c1.99 0 3.12 0 2.84.654s-1.99.654-3.98.654-3.12 0-2.84-.654c.29-.654 1.99-.654 3.98-.654z"/><path d="m1060.99 215.054c1.99 0 3.41.653 3.12.653-.28.654-2.27.654-4.26.654s-3.41-.654-3.12-.654c.28 0 1.98-.653 4.26-.653z"/><path d="m1066.95 205.903c2.28 0 3.7.653 3.13.653-.28.654-2.27.654-4.55.654-1.98 0-3.69-.654-3.12-.654.28 0 2.27-.653 4.54-.653z"/><path d="m1073.49 195.444c2.27 0 3.69.654 3.41 1.307-.28.654-2.56.654-4.83.654s-3.69-.654-3.41-.654c.57-.653 2.56-1.307 4.83-1.307z"/><path d="m1081.45 183.678c2.55 0 3.97.654 3.69 1.307-.57.654-2.84 1.307-5.11 1.307-2.28 0-3.98-.653-3.7-1.307.29-1.307 2.56-1.307 5.12-1.307z"/><path d="m1090.25 169.298c2.56 0 4.27.653 3.98 1.307-.57.654-3.12 1.307-5.68 1.307s-4.26-.653-3.98-1.307c.57-.654 3.13-1.307 5.68-1.307z"/><path d="m1100.77 153.61c2.84 0 4.54.654 3.97 1.307-.56.654-3.4 1.308-6.25 1.308-2.84 0-4.54-.654-3.97-1.308.56-.653 3.41-1.307 6.25-1.307z"/><path d="m1112.98 134c3.13 0 5.12.653 4.27 1.961-.57 1.307-3.7 1.961-6.82 1.961-3.13 0-5.12-.654-4.26-1.961.56-.654 3.69-1.961 6.81-1.961z"/><path d="m1127.76 111.122c3.41 0 5.4 1.308 4.55 1.961-.86 1.308-4.27 1.961-7.68 1.961s-5.39-.653-4.83-1.961c1.14-.653 4.55-1.961 7.96-1.961z"/><path d="m1145.66 83.0144c3.69 0 5.97 1.3073 5.11 2.6147-1.13 1.3073-4.83 2.6146-8.52 2.6146s-5.97-1.3073-5.11-2.6146c.85-1.3074 4.83-2.6147 8.52-2.6147z"/><path d="m1168.11 48.3711c4.26 0 6.53 1.3073 5.4 3.2683-1.14 1.961-5.69 3.2683-9.95 3.2683s-6.53-1.3073-5.4-3.2683c1.42-1.961 5.68-3.2683 9.95-3.2683z"/><path d="m1197.09 3.26816c4.83 0 7.39 1.96095 5.68 4.57559-1.7 2.61465-6.82 4.57565-11.65 4.57565s-7.39-1.961-5.96-4.57565c1.98-2.61464 7.1-4.57559 11.93-4.57559z"/><path d="m1000.75 266.693h2.27c-.28.653-1.42.653-2.27 0-1.703.653-2.556.653-2.556 0z"/><path d="m1002.17 262.771c1.42 0 2.28 0 2.28.654 0 0-1.14.653-2.56.653s-2.275 0-2.275-.653c0-.654 1.135-.654 2.555-.654z"/><path d="m1003.59 258.849c1.42 0 2.56 0 2.28.653 0 0-1.42.654-2.85.654-1.42 0-2.55 0-2.27-.654.29-.653 1.42-.653 2.84-.653z"/><path d="m1005.3 254.274c1.42 0 2.55-.001 2.55.653 0 0-1.42.654-2.84.654s-2.55 0-2.55-.654 1.42-.653 2.84-.653z"/><path d="m1007 249.044c1.42 0 2.84 0 2.56.654 0 0-1.42.653-3.13.653-1.42 0-2.84 0-2.55-.653.28-.654 1.7-.654 3.12-.654z"/><path d="m1008.99 243.815c1.71 0 2.84 0 2.84.653 0 0-1.42.654-3.12.654-1.71 0-2.84 0-2.84-.654.28-.653 1.7-.653 3.12-.653z"/><path d="m1011.26 237.932c1.71 0 2.85 0 2.85.654 0 0-1.71.653-3.41.653-1.71 0-2.85 0-2.85-.653.29-.654 1.71-.654 3.41-.654z"/><path d="m1013.54 230.742c1.7 0 3.12 0 3.12.653-.28.654-1.7.654-3.41.654-1.7 0-3.12 0-3.12-.654.28 0 1.7-.653 3.41-.653z"/><path d="m1016.38 223.551c1.99 0 3.41 0 3.12.654-.28.654-1.7.654-3.69.654s-3.41 0-3.12-.654c0 0 1.7-.654 3.69-.654z"/><path d="m1019.22 215.054c1.99 0 3.41.653 3.41.653-.28.654-1.99.654-3.98.654s-3.41-.654-3.41-.654c.29 0 1.99-.653 3.98-.653z"/><path d="m1022.63 205.903c2.27 0 3.69.653 3.41.653-.28.654-1.99.654-4.26.654-1.99 0-3.7-.654-3.41-.654.28 0 2.27-.653 4.26-.653z"/><path d="m1026.61 195.444c2.27 0 3.98.654 3.69.654-.28.653-2.27.653-4.54.653-2.28 0-3.98-.653-3.7-.653.29 0 2.27-.654 4.55-.654z"/><path d="m1030.87 183.678c2.56 0 4.26.654 3.98 1.307-.29.654-2.56 1.307-4.83 1.307-2.28 0-4.26-.653-3.98-1.307.28-1.307 2.56-1.307 4.83-1.307z"/><path d="m1035.98 169.298c2.56 0 4.55.653 4.27 1.307-.29.654-2.56 1.307-5.12 1.307s-4.54-.653-4.26-1.307c0-.654 2.56-1.307 5.11-1.307z"/><path d="m1041.95 153.61c2.84 0 4.83.654 4.55 1.307-.29.654-2.84 1.308-5.69 1.308-2.84 0-4.83-.654-4.54-1.308.28-.653 2.84-1.307 5.68-1.307z"/><path d="m1048.77 134.654c3.13 0 5.4.653 4.83 1.961-.28 1.307-3.13 1.96-6.25 1.96-3.13 0-5.11-.653-4.83-1.96.28-1.308 3.12-1.961 6.25-1.961z"/><path d="m1057.01 111.122c3.41 0 5.68 1.308 5.4 1.961-.57 1.308-3.7 1.961-6.82 1.961-3.41 0-5.68-.653-5.4-1.961.29-.653 3.41-1.961 6.82-1.961z"/><path d="m1067.24 83.6684c3.69 0 6.25 1.3073 5.68 2.6146s-3.98 2.6147-7.67 2.6147-6.25-1.3074-5.68-2.6147c.57-1.961 3.98-2.6146 7.67-2.6146z"/><path d="m1080.02 48.3711c4.27 0 7.11 1.3073 6.26 3.2683-.86 1.961-4.83 3.2683-8.81 3.2683-4.26 0-7.11-1.3073-6.25-3.2683.57-1.961 4.54-3.2683 8.8-3.2683z"/><path d="m1096.5 3.26816c4.84 0 7.96 1.96095 7.11 4.57559-.85 2.61465-5.68 4.57565-10.23 4.57565-4.83 0-7.96-1.961-7.1-4.57565.56-2.61464 5.11-4.57559 10.22-4.57559z"/><path d="m973.474 266.693c1.421 0 2.274 0 2.274.653 0 0-1.137 0-2.558 0-1.42 0-2.273 0-2.273 0 .284-.653 1.421-.653 2.557-.653z"/><path d="m973.759 262.771c1.42 0 2.557 0 2.273.654 0 0-1.137.653-2.558.653-1.42 0-2.557 0-2.273-.653.284-.654 1.421-.654 2.558-.654z"/><path d="m974.327 258.849c1.421 0 2.557 0 2.557.653 0 0-1.136.654-2.557.654s-2.557 0-2.557-.654c0-.653 1.136-.653 2.557-.653z"/><path d="m974.611 254.274c1.421 0 2.557-.001 2.557.653 0 0-1.136.654-2.841.654-1.421 0-2.557 0-2.557-.654s1.42-.653 2.841-.653z"/><path d="m975.179 249.044c1.421 0 2.842 0 2.842.654 0 0-1.421.653-2.842.653s-2.841 0-2.841-.653c0-.654 1.136-.654 2.841-.654z"/><path d="m975.463 243.815c1.705 0 2.842 0 2.842.653 0 0-1.421.654-3.126.654s-2.841 0-2.841-.654c.284-.653 1.42-.653 3.125-.653z"/><path d="m976.032 237.932c1.704 0 3.125 0 3.125.654 0 0-1.421.653-3.125.653-1.705 0-3.126 0-3.126-.653 0-.654 1.421-.654 3.126-.654z"/><path d="m976.6 230.742c1.705 0 3.125 0 3.125.653 0 .654-1.42.654-3.409.654-1.705 0-3.126 0-3.126-.654 0 0 1.705-.653 3.41-.653z"/><path d="m977.168 223.551c1.989 0 3.41 0 3.41.654s-1.705.654-3.41.654c-1.989 0-3.41 0-3.41-.654 0 0 1.421-.654 3.41-.654z"/><path d="m978.021 215.707c1.989 0 3.693.654 3.409.654 0 .654-1.705.654-3.694.654-1.988 0-3.693-.654-3.409-.654 0-.654 1.705-.654 3.694-.654z"/><path d="m978.589 205.903c1.989 0 3.694.653 3.694.653 0 .654-1.705.654-3.978.654s-3.694-.654-3.694-.654c.284 0 1.989-.653 3.978-.653z"/><path d="m979.441 195.444c2.273 0 3.978.654 3.978 1.307 0 .654-1.989.654-4.262.654s-3.978-.654-3.978-.654c.284-.653 1.989-1.307 4.262-1.307z"/><path d="m980.578 183.678c2.557 0 4.262.654 4.262 1.307 0 .654-1.989 1.307-4.546 1.307-2.273 0-4.262-.653-4.262-1.307 0-.653 1.989-1.307 4.546-1.307z"/><path d="m981.714 169.951c2.558 0 4.546.654 4.546 1.308 0 .653-2.273 1.307-4.83 1.307s-4.546-.654-4.546-1.307c0-.654 2.273-1.308 4.83-1.308z"/><path d="m983.135 153.61c2.841 0 5.114.654 4.83 1.307 0 .654-2.557 1.308-5.398 1.308-2.842 0-5.115-.654-4.831-1.308.284-.653 2.558-1.307 5.399-1.307z"/><path d="m984.84 134.654c3.125 0 5.398.653 5.398 1.961 0 1.307-2.841 1.96-5.682 1.96-3.126 0-5.399-.653-5.399-1.96 0-1.308 2.557-1.961 5.683-1.961z"/><path d="m986.829 111.776c3.409 0 5.967 1.307 5.967 1.961-.285 1.307-3.126 1.961-6.251 1.961-3.126 0-5.967-.654-5.967-1.961s2.841-1.961 6.251-1.961z"/><path d="m989.102 83.6684c3.694 0 6.819 1.3073 6.535 2.6146s-3.41 2.6147-7.103 2.6147c-3.694 0-6.536-1.3074-6.536-2.6147s3.41-2.6146 7.104-2.6146z"/><path d="m991.943 48.3711c4.262 0 7.388 1.3073 7.388 3.2683-.285 1.961-3.694 3.2683-7.956 3.2683s-7.388-1.3073-7.388-3.2683c.284-1.3073 3.694-3.2683 7.956-3.2683z"/><path d="m995.921 3.92182c4.829 0 8.529 1.96095 8.239 4.57559-.28 2.61459-4.261 4.57559-9.091 4.57559-4.831 0-8.524-1.961-8.24-4.57559 0-2.61463 4.262-4.57559 9.092-4.57559z"/><path d="m946.482 266.693h2.273c0 .653-.853.653-2.273 0-1.137.653-2.274.653-2.274 0z"/><path d="m945.629 262.771c1.421 0 2.557 0 2.557.654 0 0-1.136.653-2.273.653-1.42 0-2.557 0-2.557-.653 0 0 .852-.654 2.273-.654z"/><path d="m944.777 258.849c1.42 0 2.557 0 2.557.653 0 0-1.137.654-2.557.654-1.421 0-2.557 0-2.557-.654-.001-.653 1.136-.653 2.557-.653z"/><path d="m943.924 254.274c1.421 0 2.842-.001 2.842.653 0 0-1.137.654-2.558.654-1.42 0-2.557 0-2.841-.654 0-.654 1.137-.653 2.557-.653z"/><path d="m943.072 249.044c1.421 0 2.841 0 2.841.654 0 0-1.136.653-2.841.653-1.421 0-2.841 0-2.841-.653 0 0 1.136-.654 2.841-.654z"/><path d="m941.935 243.815c1.705 0 2.842 0 3.126.653 0 0-1.137.654-2.841.654-1.705 0-2.842 0-3.126-.654 0-.653 1.137-.653 2.841-.653z"/><path d="m940.799 237.932c1.705 0 3.125 0 3.125.654 0 0-1.42.653-3.125.653s-3.126 0-3.126-.653c0-.654 1.421-.654 3.126-.654z"/><path d="m939.378 231.395c1.705 0 3.41 0 3.41.654s-1.421.654-3.126.654-3.409 0-3.409-.654 1.42-.654 3.125-.654z"/><path d="m937.957 223.551c1.989 0 3.41 0 3.41.654s-1.421.654-3.41.654c-1.988 0-3.409 0-3.409-.654.284 0 1.705-.654 3.409-.654z"/><path d="m936.537 215.707c1.989 0 3.694.654 3.694.654 0 .654-1.421.654-3.41.654s-3.694-.654-3.694-.654c-.284-.654 1.421-.654 3.41-.654z"/><path d="m934.548 205.903c1.989 0 3.978.653 3.978.653 0 .654-1.705.654-3.694.654s-3.978-.654-3.978-.654 1.705-.653 3.694-.653z"/><path d="m932.559 195.444c2.273 0 4.262.654 4.262 1.307 0 .654-1.705.654-3.978.654s-4.262-.654-4.262-.654c0-.653 1.705-1.307 3.978-1.307z"/><path d="m930.286 183.678c2.557 0 4.546.654 4.546 1.307 0 .654-1.705 1.307-4.262 1.307-2.273 0-4.546-.653-4.546-1.307 0-.653 1.989-1.307 4.262-1.307z"/><path d="m927.729 169.951c2.557 0 4.83.654 4.83 1.308 0 .653-1.989 1.307-4.546 1.307-2.558 0-4.831-.654-4.831-1.307-.284-.654 1.705-1.308 4.547-1.308z"/><path d="m924.603 153.61c2.841 0 5.115.654 5.399 1.307 0 .654-1.989 1.308-4.831 1.308-2.841 0-5.114-.654-5.398-1.308-.284-.653 1.989-1.307 4.83-1.307z"/><path d="m920.909 134.654c3.126 0 5.683.653 5.967 1.961.284 1.307-2.273 1.96-5.398 1.96-3.126 0-5.683-.653-5.967-1.96-.284-1.308 2.273-1.961 5.398-1.961z"/><path d="m916.363 111.776c3.41 0 6.251 1.307 6.535 1.961.285 1.307-2.273 1.961-5.682 1.961-3.41 0-6.251-.654-6.535-1.961-.285-.654 2.273-1.961 5.682-1.961z"/><path d="m910.965 83.6684c3.693 0 7.103 1.3073 7.387 2.6146s-2.557 2.6147-6.251 2.6147-6.819-1.3074-7.103-2.6147c-.568-1.3073 2.273-2.6146 5.967-2.6146z"/><path d="m904.145 49.0247c4.262 0 7.956 1.3073 8.24 3.2683s-2.841 3.2683-7.103 3.2683-7.956-1.3073-8.24-3.2683 2.841-3.2683 7.103-3.2683z"/><path d="m895.621 3.92182c4.831 0 9.093 1.96095 9.377 4.57559.284 2.61459-3.126 4.57559-7.956 4.57559s-9.092-1.961-9.376-4.57559c-.569-1.96098 2.841-4.57559 7.955-4.57559z"/><path d="m919.489 266.693h2.557s-.852.653-2.273.653-2.557 0-2.557-.653z"/><path d="m917.5 262.771c1.42 0 2.557 0 2.557.654 0 0-.852.653-2.273.653s-2.557 0-2.557-.653c0 0 .852-.654 2.273-.654z"/><path d="m915.511 258.849c1.42 0 2.557 0 2.841.653 0 0-1.136.654-2.273.654-1.421 0-2.557 0-2.841-.654-.284-.653.852-.653 2.273-.653z"/><path d="m913.522 254.274c1.421 0 2.841-.001 2.841.653 0 0-1.136.654-2.557.654s-2.841 0-2.841-.654c-.285-.654.852-.653 2.557-.653z"/><path d="m910.965 249.044c1.42 0 2.841 0 3.125.654 0 0-1.136.653-2.557.653s-2.841 0-3.126-.653c0 0 1.137-.654 2.558-.654z"/><path d="m908.407 243.815c1.705 0 3.126 0 3.126.653 0 0-1.137.654-2.841.654-1.705 0-3.126 0-3.126-.654 0-.653 1.137-.653 2.841-.653z"/><path d="m905.566 237.932c1.705 0 3.126 0 3.41.654 0 0-1.137.653-2.842.653-1.704 0-3.125 0-3.409-.653 0-.654 1.136-.654 2.841-.654z"/><path d="m902.441 231.395c1.704 0 3.409 0 3.409.654s-1.136.654-2.841.654-3.41 0-3.41-.654c-.284-.654 1.137-.654 2.842-.654z"/><path d="m899.031 223.551c1.989 0 3.694 0 3.694.654.284.654-1.137.654-3.126.654s-3.409 0-3.693-.654c-.285 0 1.136-.654 3.125-.654z"/><path d="m895.053 215.707c1.989 0 3.694.654 3.978.654.284.654-1.421.654-3.41.654s-3.693-.654-3.977-.654c0-.654 1.42-.654 3.409-.654z"/><path d="m890.791 206.556c1.989 0 3.978.654 4.262.654.284.653-1.421.654-3.409.654-1.989 0-3.978-.654-4.262-.654-.285-.654 1.136-.654 3.409-.654z"/><path d="m885.677 196.098c2.273 0 4.262.653 4.546.653.284.654-1.421.654-3.694.654s-4.262-.654-4.546-.654c0-.653 1.42-.653 3.694-.653z"/><path d="m879.994 183.678c2.557 0 4.546.654 4.83 1.307.284.654-1.42 1.307-3.978 1.307-2.273 0-4.546-.653-4.83-1.307 0-.653 1.705-1.307 3.978-1.307z"/><path d="m873.459 169.951c2.557 0 5.114.654 5.398 1.308.284.653-1.42 1.307-4.262 1.307-2.557 0-4.83-.654-5.398-1.307 0-.654 1.705-1.308 4.262-1.308z"/><path d="m866.071 153.61c2.842 0 5.399.654 5.683 1.307.284.654-1.705 1.308-4.546 1.308-2.842 0-5.399-.654-5.683-1.308-.284-.653 1.705-1.307 4.546-1.307z"/><path d="m856.979 134.654c3.126 0 5.967.653 6.251 1.961.284 1.307-1.705 1.96-4.83 1.96-3.126 0-5.967-.653-6.251-1.96-.284-.654 1.705-1.961 4.83-1.961z"/><path d="m846.182 111.776c3.41 0 6.535 1.307 7.103 1.961.569 1.307-1.705 1.961-5.114 1.961-3.41 0-6.535-.654-7.104-1.961-.568-.654 1.705-1.961 5.115-1.961z"/><path d="m833.112 84.3223c3.693 0 7.387 1.3073 7.955 2.6146.569 1.3073-1.989 2.6146-5.682 2.6146-3.694 0-7.388-1.3073-7.956-2.6146s1.705-2.6146 5.683-2.6146z"/><path d="m816.632 49.0247c4.262 0 8.24 1.3073 9.092 3.2683s-1.989 3.2683-5.967 3.2683c-4.262 0-8.24-1.3073-9.092-3.2683-1.137-1.3073 1.705-3.2683 5.967-3.2683z"/><path d="m795.322 4.57602c4.83 0 9.66 1.96105 10.797 4.57569 1.136 2.61459-1.989 4.57559-6.819 4.57559-4.831 0-9.377-1.961-10.514-4.57559-1.136-2.61464 1.705-4.57569 6.536-4.57569z"/><path d="m892.212 266.693c1.42 0 2.557 0 2.557.653 0 0-.853.654-2.273.654-1.421 0-2.557 0-2.557-.654 0 0 1.136-.653 2.273-.653z"/><path d="m889.37 262.771c1.421 0 2.558 0 2.842.654 0 0-.853.653-2.273.653-1.421 0-2.558 0-2.842-.653 0 0 .853-.654 2.273-.654z"/><path d="m886.245 258.849c1.421 0 2.557 0 2.841.653 0 0-.852.654-2.273.654s-2.557 0-2.841-.654c-.284-.653.852-.653 2.273-.653z"/><path d="m882.835 254.274c1.421 0 2.842-.001 2.842.653.284 0-.853.654-2.273.654-1.421 0-2.842 0-2.842-.654-.284-.654.853-.653 2.273-.653z"/><path d="m879.142 249.044c1.42 0 2.841 0 3.125.654.284 0-.852.653-2.557.653-1.421 0-2.842 0-3.126-.653-.284 0 .853-.654 2.558-.654z"/><path d="m874.88 243.815c1.704 0 3.125 0 3.409.653.284 0-.852.654-2.557.654s-3.126 0-3.41-.654c0-.653 1.137-.653 2.558-.653z"/><path d="m870.333 237.932c1.705 0 3.126 0 3.41.654.284 0-1.137.653-2.557.653-1.705 0-3.126 0-3.41-.653-.284-.654.853-.654 2.557-.654z"/><path d="m865.503 231.395c1.705 0 3.41 0 3.694.654s-1.137.654-2.841.654c-1.705 0-3.41 0-3.694-.654s1.136-.654 2.841-.654z"/><path d="m859.82 223.551c1.989 0 3.694 0 3.978.654s-1.136.654-2.841.654c-1.989 0-3.694 0-3.978-.654-.284 0 1.136-.654 2.841-.654z"/><path d="m853.854 215.707c1.989 0 3.978.654 4.262.654.284.654-1.137.654-3.126.654s-3.978-.654-4.262-.654c-.284-.654 1.137-.654 3.126-.654z"/><path d="m846.75 206.556c1.989 0 4.262.654 4.546.654.284.653-1.136.654-3.125.654s-3.978-.654-4.546-.654c-.284-.654 1.136-.654 3.125-.654z"/><path d="m838.794 196.098c2.273 0 4.546.653 4.831 1.307.284.654-1.137.654-3.41.654s-4.262-.654-4.83-.654c-.284-1.307 1.42-1.307 3.409-1.307z"/><path d="m829.986 183.678c2.557 0 4.831.654 5.115 1.307.568.654-1.137 1.308-3.694 1.308-2.273 0-4.83-.654-5.115-1.308-.284-.653 1.137-1.307 3.694-1.307z"/><path d="m819.473 169.951c2.557 0 5.115.654 5.683 1.308.568.653-1.137 1.307-3.694 1.307s-5.114-.654-5.683-1.307c-.568-.654 1.137-1.308 3.694-1.308z"/><path d="m807.54 154.264c2.841 0 5.682.653 6.251 1.307.568.654-1.137 1.307-3.978 1.307-2.842 0-5.683-.653-6.251-1.307-.569-.654 1.136-1.307 3.978-1.307z"/><path d="m793.333 135.308c3.125 0 6.251.653 6.819 1.96.568.654-1.137 1.961-4.262 1.961-3.126 0-5.967-.653-6.819-1.961-.853-1.307 1.136-1.96 4.262-1.96z"/><path d="m776 112.429c3.41 0 6.82 1.308 7.672 1.961.852 1.308-1.137 1.961-4.546 1.961-3.41 0-6.819-.653-7.672-1.961-.852-1.307 1.137-1.961 4.546-1.961z"/><path d="m755.259 84.3223c3.693 0 7.671 1.3073 8.808 2.6146 1.136 1.3073-1.137 2.6146-4.83 2.6146-3.694 0-7.672-1.3073-8.809-2.6146-1.136-1.3073.853-2.6146 4.831-2.6146z"/><path d="m729.118 49.6783c4.262 0 8.808 1.3073 9.945 3.2683 1.421 1.9609-1.137 3.2682-5.114 3.2682-4.262 0-8.525-1.3073-9.945-3.2682-1.421-1.961.852-3.2683 5.114-3.2683z"/><path d="m695.59 5.22968c4.83 0 10.229 1.96096 11.934 4.57559s-.853 4.57563-5.399 4.57563c-4.83 0-9.944-1.961-11.933-4.57563s.568-4.57559 5.398-4.57559z"/><path d="m865.219 266.693h2.557c.284 0-.852.653-1.989.653-1.421 0-2.557 0-2.557-.653-.284.653.568 0 1.989 0z"/><path d="m861.241 262.771c1.421 0 2.557 0 2.841.654.284 0-.852.653-1.989.653-1.42 0-2.557 0-2.841-.653-.284 0 .568-.654 1.989-.654z"/><path d="m856.979 258.849c1.421 0 2.841 0 2.841.653.284 0-.852.654-2.273.654s-2.841 0-2.841-.654c-.284-.653.852-.653 2.273-.653z"/><path d="m852.149 254.274c1.42 0 2.841-.001 3.125.653.284 0-.852.654-2.273.654s-2.841 0-3.125-.654c0-.654.852-.653 2.273-.653z"/><path d="m847.034 249.044c1.421 0 3.126 0 3.126.654.284 0-.853.653-2.273.653-1.421 0-3.126 0-3.126-.653-.284 0 .852-.654 2.273-.654z"/><path d="m841.352 243.815c1.704 0 3.125 0 3.409.653.284.654-.852.654-2.557.654s-3.125 0-3.41-.654c0-.653 1.137-.653 2.558-.653z"/><path d="m835.385 237.932c1.705 0 3.409 0 3.693.654.285 0-.852.653-2.557.653s-3.409 0-3.694-.653c-.284-.654.853-.654 2.558-.654z"/><path d="m828.566 231.395c1.704 0 3.409 0 3.693.654s-.852.654-2.557.654-3.41 0-3.694-.654c-.568-.654.569-.654 2.558-.654z"/><path d="m820.894 224.205c1.989 0 3.693 0 3.978.654.284.653-.853.653-2.842.653s-3.694 0-3.978-.653c-.284-.654.853-.654 2.842-.654z"/><path d="m812.37 215.707c1.989 0 3.978.654 4.262.654.284.654-.853.654-2.842.654s-3.978-.654-4.262-.654c-.284-.654.853-.654 2.842-.654z"/><path d="m802.993 206.556c1.989 0 4.262.654 4.546.654.569.653-.852.654-3.125.654-1.989 0-4.262-.654-4.546-.654-.284-.654.852-.654 3.125-.654z"/><path d="m792.196 196.098c2.273 0 4.546.653 5.115.653.568.654-.853.654-3.126.654s-4.546-.654-5.114-.654c-.569-.653.852-.653 3.125-.653z"/><path d="m779.978 184.332c2.558 0 4.831.653 5.399 1.307s-.852 1.307-3.41 1.307c-2.273 0-4.83-.653-5.398-1.307-.569-1.307.852-1.307 3.409-1.307z"/><path d="m765.772 169.951c2.557 0 5.398.654 5.966 1.308.569.653-.852 1.307-3.409 1.307s-5.399-.654-5.967-1.307c-.852-.654.568-1.308 3.41-1.308z"/><path d="m749.008 154.264c2.841 0 5.682.653 6.535 1.307.852.654-.853 1.307-3.694 1.307s-5.683-.653-6.535-1.307c-.568-.654.852-1.307 3.694-1.307z"/><path d="m729.402 135.308c3.126 0 6.251.653 7.388 1.96.852 1.308-.853 1.961-3.694 1.961-3.125 0-6.251-.653-7.387-1.961-.853-1.307.852-1.96 3.693-1.96z"/><path d="m706.103 112.429c3.41 0 7.104 1.308 8.24 1.961 1.137 1.308-.568 1.961-3.978 1.961-3.409 0-7.103-.653-8.24-1.961-1.136-1.307.569-1.961 3.978-1.961z"/><path d="m677.406 84.3223c3.693 0 7.955 1.3073 9.376 2.6146s-.284 2.6146-3.978 2.6146-7.956-1.3073-9.376-2.6146c-1.421-1.3073.284-2.6146 3.978-2.6146z"/><path d="m641.889 49.6783c4.262 0 9.092 1.3073 11.081 3.2683 1.705 1.9609 0 3.2682-4.262 3.2682s-9.092-1.3073-11.081-3.2682c-1.989-1.3074 0-3.2683 4.262-3.2683z"/><path d="m595.859 5.22968c4.83 0 10.797 1.96096 13.07 4.57559s.284 4.57563-4.262 4.57563c-4.83 0-10.513-1.961-13.07-4.57563-2.273-2.61463-.568-4.57559 4.262-4.57559z"/><path d="m838.226 266.693h2.841c.285 0-.568.653-1.989.653-1.42 0-2.557 0-2.841-.653-.284.653.568 0 1.989 0z"/><path d="m833.112 262.771c1.42 0 2.557 0 2.841.654.284 0-.568.653-1.989.653s-2.557 0-2.841-.653c-.284 0 .568-.654 1.989-.654z"/><path d="m827.713 258.849c1.421 0 2.841 0 3.126.653.284 0-.569.654-1.989.654-1.421 0-2.842 0-3.126-.654-.284-.653.568-.653 1.989-.653z"/><path d="m821.746 254.274c1.421 0 2.842-.001 3.126.653.284 0-.568.654-2.273.654-1.421 0-2.842 0-3.126-.654s.853-.653 2.273-.653z"/><path d="m815.211 249.044c1.421 0 3.126 0 3.41.654.284 0-.569.653-2.273.653-1.705 0-3.126 0-3.41-.653-.284 0 .568-.654 2.273-.654z"/><path d="m808.108 243.815c1.704 0 3.125 0 3.409.653.284 0-.568.654-2.273.654s-3.125 0-3.41-.654c-.568-.653.569-.653 2.274-.653z"/><path d="m800.152 237.932c1.705 0 3.41 0 3.694.654.284 0-.569.653-2.273.653-1.705 0-3.41 0-3.694-.653-.568-.654.568-.654 2.273-.654z"/><path d="m791.628 231.395c1.705 0 3.694 0 3.978.654s-.569.654-2.558.654c-1.704 0-3.693 0-3.977-.654-.285-.654.568-.654 2.557-.654z"/><path d="m781.967 224.205c1.989 0 3.694 0 4.262.654.568.653-.568.653-2.557.653s-3.694 0-4.262-.653c-.568-.654.568-.654 2.557-.654z"/><path d="m771.17 215.707c1.989 0 3.978.654 4.546.654.569.654-.568.654-2.557.654s-3.978-.654-4.546-.654.568-.654 2.557-.654z"/><path d="m759.236 206.556c1.989 0 4.262.654 4.831.654.568.653-.569.654-2.842.654-1.989 0-4.262-.654-4.83-.654s.568-.654 2.841-.654z"/><path d="m745.314 196.098c2.273 0 4.546.653 5.398.653.569.654-.568.654-2.841.654s-4.546-.654-5.398-.654c-.569 0 .568-.653 2.841-.653z"/><path d="m729.687 184.332c2.557 0 5.114.653 5.682 1.307.853.654-.568 1.307-2.841 1.307s-5.115-.653-5.683-1.307c-.852-1.307.568-1.307 2.842-1.307z"/><path d="m711.786 170.605c2.557 0 5.398.654 6.251 1.307.852.654-.568 1.308-3.126 1.308-2.557 0-5.398-.654-6.251-1.308-.852-1.307.569-1.307 3.126-1.307z"/><path d="m690.76 154.264c2.841 0 5.967.653 7.103 1.307 1.137.654-.284 1.307-3.125 1.307-2.842 0-5.967-.653-7.104-1.307-1.136-.654.285-1.307 3.126-1.307z"/><path d="m666.04 135.308c3.126 0 6.535.653 7.956 1.96 1.137 1.308-.284 1.961-3.409 1.961-3.126 0-6.536-.653-7.956-1.961-1.137-1.307.284-1.96 3.409-1.96z"/><path d="m636.206 112.429c3.41 0 7.388.654 8.808 1.961 1.421 1.308 0 1.961-3.409 1.961-3.41 0-7.388-.653-8.809-1.961-1.42-.653 0-1.961 3.41-1.961z"/><path d="m599.837 84.9758c3.693 0 8.24 1.3074 10.228 2.6147 1.705 1.3073.285 2.6146-3.409 2.6146s-8.24-1.3073-10.229-2.6146c-1.705-1.3073-.284-2.6147 3.41-2.6147z"/><path d="m554.659 50.3318c4.262 0 9.661 1.3073 11.934 3.2683s.852 3.2683-3.41 3.2683-9.376-1.3073-11.933-3.2683c-2.274-1.961-.853-3.2683 3.409-3.2683z"/><path d="m496.412 5.88349c4.83 0 11.365 1.96095 14.206 4.57561 3.126 2.6146 1.705 4.5756-3.125 4.5756-4.831 0-11.082-1.961-14.207-4.5756-2.841-2.61465-1.705-4.57561 3.126-4.57561z"/><path d="m811.233 266.693h2.842c.284 0-.569.653-1.989.653-1.421 0-2.557 0-2.842-.653-.284.653.569 0 1.989 0z"/><path d="m804.982 263.425c1.421 0 2.842 0 3.126.653.284 0-.569.654-1.989.654-1.421 0-2.557 0-3.126-.654-.284-.653.569-.653 1.989-.653z"/><path d="m798.447 258.849c1.421 0 2.841 0 3.126.653.284 0-.569.654-1.989.654-1.421 0-2.842 0-3.126-.654-.284-.653.569-.653 1.989-.653z"/><path d="m791.06 254.274c1.42 0 2.841-.001 3.409.653.284 0-.568.654-1.989.654-1.42 0-2.841 0-3.409-.654-.284-.654.568-.653 1.989-.653z"/><path d="m783.388 249.697c1.421 0 3.125.001 3.41.654.284 0-.569.654-1.989.654-1.421 0-3.126 0-3.41-.654-.568-.653.284-.654 1.989-.654z"/><path d="m774.58 243.815c1.705 0 3.41 0 3.694.653.284 0-.569.654-2.273.654-1.705 0-3.126 0-3.694-.654-.284 0 .568-.653 2.273-.653z"/><path d="m765.203 237.932c1.705 0 3.41 0 3.978.654.568 0-.568.653-2.273.653s-3.41 0-3.978-.653c-.568-.654.568-.654 2.273-.654z"/><path d="m754.69 231.395c1.705 0 3.694 0 4.262.654.569.654-.568.654-2.273.654-1.704 0-3.693 0-4.262-.654-.568-.654.569-.654 2.273-.654z"/><path d="m743.041 224.205c1.989 0 3.978 0 4.546.654.568.653-.568.653-2.273.653-1.989 0-3.978 0-4.546-.653-.853-.654.284-.654 2.273-.654z"/><path d="m729.971 215.707c1.989 0 4.262.654 4.83.654.568.654-.568.654-2.557.654s-3.978-.654-4.831-.654c-.568 0 .569-.654 2.558-.654z"/><path d="m715.196 206.556c1.988 0 4.546.654 5.114.654.852.653-.284.654-2.557.654-1.989 0-4.262-.654-5.115-.654-.568 0 .569-.654 2.558-.654z"/><path d="m698.716 196.098c2.273 0 4.83.653 5.682.653.853.654-.284.654-2.557.654s-4.83-.654-5.683-.654c-.852 0 .285-.653 2.558-.653z"/><path d="m679.679 184.332c2.557 0 5.114.653 5.966 1.307.853.654-.284 1.307-2.557 1.307s-5.114-.653-5.967-1.307c-.852-.654.285-1.307 2.558-1.307z"/><path d="m658.084 170.605c2.557 0 5.683.654 6.82 1.307 1.136.654 0 1.308-2.842 1.308-2.557 0-5.683-.654-6.819-1.308-1.137-.653 0-1.307 2.841-1.307z"/><path d="m632.512 154.264c2.842 0 6.251.653 7.388 1.307 1.136.654 0 1.307-2.842 1.307-2.841 0-5.966-.653-7.387-1.307-1.137-.654 0-1.307 2.841-1.307z"/><path d="m602.394 135.308c3.125 0 6.819.653 8.24 1.96 1.421 1.308.284 1.961-2.841 1.961-3.126 0-6.82-.653-8.24-1.961-1.421-.653-.284-1.96 2.841-1.96z"/><path d="m566.593 113.083c3.41 0 7.671.654 9.376 1.961s.569 1.961-2.841 1.961-7.672-.654-9.376-1.961c-1.989-1.307-.569-1.961 2.841-1.961z"/><path d="m522.552 84.9758c3.694 0 8.808 1.3074 10.797 2.6147 2.273 1.3073 1.137 2.6146-2.557 2.6146s-8.524-1.3073-10.797-2.6146-1.137-2.6147 2.557-2.6147z"/><path d="m467.714 50.3321c4.262 0 9.945 1.3073 12.786 3.2683 2.841 1.9609 1.705 3.2683-2.273 3.2683-4.262 0-9.945-1.3074-12.786-3.2683-3.126-1.3074-1.989-3.2683 2.273-3.2683z"/><path d="m397.248 6.53696c4.831 0 11.934 1.96095 15.628 4.57554 3.693 2.6147 2.841 4.5757-1.989 4.5757-4.831 0-11.65-1.961-15.343-4.5757-3.694-2.61459-3.126-4.57554 1.704-4.57554z"/><path d="m784.24 266.693h2.842c.284 0-.569 0-1.705 0-1.421 0-2.557 0-2.841 0-.569.653.284 0 1.704 0z"/><path d="m776.853 263.425c1.421 0 2.841 0 3.125.653.285 0-.568.654-1.704.654-1.421 0-2.842 0-3.126-.654-.284-.653.568-.653 1.705-.653z"/><path d="m769.181 258.849c1.421 0 2.842 0 3.126.653.284 0-.569.654-1.989.654-1.421 0-2.841 0-3.126-.654-.284-.653.569-.653 1.989-.653z"/><path d="m760.657 254.274c1.421 0 3.126-.001 3.41.653.284 0-.568.654-1.989.654s-3.126 0-3.41-.654.569-.653 1.989-.653z"/><path d="m751.281 249.697c1.42 0 3.125.001 3.693.654.569 0-.568.654-1.988.654-1.421 0-3.126 0-3.694-.654-.284-.653.568-.654 1.989-.654z"/><path d="m741.336 243.815c1.705 0 3.41 0 3.694.653.568 0-.284.654-1.989.654s-3.41 0-3.694-.654c-.568 0 .284-.653 1.989-.653z"/><path d="m729.971 237.932c1.704 0 3.409 0 3.977.654.569 0-.284.653-1.989.653-1.704 0-3.409 0-3.977-.653-.569 0 .284-.654 1.989-.654z"/><path d="m717.753 231.395c1.705 0 3.693 0 4.262.654.568.654-.284.654-1.989.654s-3.694 0-4.262-.654c-.853-.654.284-.654 1.989-.654z"/><path d="m704.114 224.205c1.989 0 3.978 0 4.546.654.569.653-.284.653-2.273.653s-3.978 0-4.546-.653c-.568-.654.284-.654 2.273-.654z"/><path d="m688.771 215.707c1.989 0 4.262.654 5.114.654.853.654-.284.654-2.273.654s-4.262-.654-4.83-.654c-.852 0 0-.654 1.989-.654z"/><path d="m671.723 206.556c1.989 0 4.546.654 5.398.654.853.653-.284.654-2.273.654s-4.546-.654-5.398-.654c-1.137 0 0-.654 2.273-.654z"/><path d="m652.118 196.098c2.273 0 4.83.653 5.966.653.853.654 0 .654-2.273.654s-4.83-.654-5.967-.654c-1.136 0 0-.653 2.274-.653z"/><path d="m629.955 184.332c2.557 0 5.399.653 6.535 1.307 1.137.654 0 1.307-2.273 1.307s-5.114-.653-6.251-1.307c-1.421-.654-.568-1.307 1.989-1.307z"/><path d="m604.098 170.605c2.558 0 5.683.654 7.104 1.307 1.136.654.284 1.308-2.273 1.308s-5.683-.654-7.104-1.308c-1.136-.653-.284-1.307 2.273-1.307z"/><path d="m574.264 154.264c2.842 0 6.251.653 7.956 1.307 1.421.654.568 1.307-2.273 1.307s-6.251-.653-7.956-1.307c-1.42 0-.568-1.307 2.273-1.307z"/><path d="m539.032 135.961c3.125 0 7.103.654 8.808 1.961 1.705.654.852 1.961-2.273 1.961-3.126 0-7.104-.654-8.808-1.961-1.705-1.307-.853-1.961 2.273-1.961z"/><path d="m496.695 113.083c3.41 0 7.956.654 9.945 1.961 2.273 1.307 1.137 1.961-2.273 1.961s-7.672-.654-9.945-1.961c-1.989-1.307-1.136-1.961 2.273-1.961z"/><path d="m445.267 85.6296c3.694 0 9.092 1.3073 11.65 2.6146 2.557 1.3073 1.704 2.6147-1.989 2.6147-3.694 0-8.808-1.3074-11.65-2.6147-2.557-1.961-1.705-2.6146 1.989-2.6146z"/><path d="m380.769 50.9856c4.262 0 10.512 1.3073 13.922 3.2683s2.557 3.2683-1.421 3.2683c-4.262 0-10.228-1.3073-13.638-3.2683-3.694-1.9609-2.841-3.2683 1.137-3.2683z"/><path d="m298.369 6.53696c4.831 0 12.218 1.96095 16.764 4.57554 4.262 2.6147 3.978 4.5757-.852 4.5757-4.831 0-12.218-1.961-16.48-4.5757-4.546-2.61459-4.262-4.57554.568-4.57554z"/><path d="m757.247 267.346c1.421 0 2.558 0 3.126.654.284 0-.284 0-1.705 0s-2.557 0-3.125 0c-.285-.654.284-.654 1.704-.654z"/><path d="m749.008 263.425c1.42 0 2.841 0 3.125.653.284 0-.284.654-1.705.654-1.42 0-2.841 0-3.125-.654-.568-.653.284-.653 1.705-.653z"/><path d="m739.915 258.849c1.421 0 2.842 0 3.41.653.568 0-.284.654-1.705.654-1.42 0-2.841 0-3.409-.654-.569-.653.284-.653 1.704-.653z"/><path d="m730.255 254.274c1.42 0 3.125-.001 3.409.653.569 0-.284.654-1.705.654-1.42 0-3.125 0-3.409-.654-.568 0 .284-.653 1.705-.653z"/><path d="m719.458 249.697c1.42 0 3.125.001 3.693.654.569 0-.284.654-1.989.654-1.42 0-3.125 0-3.693-.654-.284-.653.568-.654 1.989-.654z"/><path d="m707.808 243.815c1.705 0 3.41 0 3.978.653.568 0-.284.654-1.989.654s-3.41 0-3.978-.654c-.284 0 .568-.653 1.989-.653z"/><path d="m695.022 237.932c1.705 0 3.694 0 4.262.654.568 0-.284.653-1.989.653s-3.694 0-4.262-.653c-.568 0 .284-.654 1.989-.654z"/><path d="m680.815 231.395c1.705 0 3.694 0 4.546.654.569.654-.284.654-1.989.654-1.704 0-3.693 0-4.546-.654-.568 0 .284-.654 1.989-.654z"/><path d="m665.188 224.205c1.989 0 3.978 0 4.83.654.852.653 0 .653-1.989.653s-3.978 0-4.83-.653c-.853-.654 0-.654 1.989-.654z"/><path d="m647.571 215.707c1.989 0 4.262.654 5.115.654.852.654 0 .654-1.989.654s-4.262-.654-5.115-.654c-.852 0 .001-.654 1.989-.654z"/><path d="m627.966 206.556c1.989 0 4.546.654 5.683.654.852.653 0 .654-1.989.654s-4.546-.654-5.683-.654c-1.136 0-.284-.654 1.989-.654z"/><path d="m605.519 196.098c2.273 0 5.115.653 6.251.653 1.137.654.284.654-1.989.654s-4.83-.654-5.966-.654c-1.421 0-.569-.653 1.704-.653z"/><path d="m579.947 184.332c2.557 0 5.399.653 6.819 1.307 1.137.654.284 1.307-1.989 1.307s-5.398-.653-6.819-1.307c-1.136-.654-.284-1.307 1.989-1.307z"/><path d="m550.681 170.605c2.558 0 5.967.654 7.388 1.307 1.421.654.568 1.308-1.989 1.308s-5.967-.654-7.388-1.308c-1.704-.653-.852-1.307 1.989-1.307z"/><path d="m516.301 154.917c2.841 0 6.535.654 8.24 1.307 1.705.654.852 1.308-1.989 1.308s-6.535-.654-8.24-1.308c-1.705-.653-.852-1.307 1.989-1.307z"/><path d="m475.67 135.961c3.125 0 7.387.654 9.376 1.961 1.989 1.308 1.137 1.961-1.705 1.961-3.125 0-7.103-.653-9.376-1.961-1.989-1.307-1.137-1.961 1.705-1.961z"/><path d="m427.367 113.083c3.409 0 8.24.654 10.797 1.961s1.705 1.961-1.705 1.961-7.956-.654-10.513-1.961c-2.841-.654-1.989-1.961 1.421-1.961z"/><path d="m367.982 85.6296c3.694 0 9.377 1.3073 12.502 2.6146 3.126 1.3073 2.558 2.6147-1.136 2.6147s-9.093-1.3074-12.218-2.6147c-3.41-1.3073-2.841-2.6146.852-2.6146z"/><path d="m294.391 50.9856c4.262 0 10.798 1.3073 14.775 3.2683 3.694 1.961 3.41 3.2683-.568 3.2683-4.262 0-10.513-1.3073-14.491-3.2683-4.262-1.3073-3.978-3.2683.284-3.2683z"/><path d="m199.774 7.19062c4.831 0 12.786 1.96095 17.901 4.57558 5.114 2.6146 5.114 4.5756.568 4.5756-4.83 0-12.502-1.961-17.616-4.5756-5.399-2.61462-5.683-4.57558-.853-4.57558z"/><path d="m720.878 263.425c1.421 0 2.842 0 3.41.653.568 0-.284.654-1.705.654s-2.841 0-3.41-.654c-.284-.653.285-.653 1.705-.653z"/><path d="m710.649 258.849c1.421 0 2.842 0 3.41.653.568 0-.284.654-1.705.654-1.42 0-2.841 0-3.409-.654-.284 0 .284-.653 1.704-.653z"/><path d="m699.852 254.274c1.421 0 3.126-.001 3.694.653.568 0-.284.654-1.705.654-1.42 0-3.125 0-3.694-.654-.568 0 0-.653 1.705-.653z"/><path d="m687.635 249.697c1.42 0 3.409.001 3.977.654.569 0-.284.654-1.704.654-1.421 0-3.126 0-3.978-.654-.569-.653.284-.654 1.705-.654z"/><path d="m674.564 243.815c1.705 0 3.41 0 3.978.653.568 0 0 .654-1.705.654-1.704 0-3.409 0-3.978-.654-.852 0 0-.653 1.705-.653z"/><path d="m660.073 237.932c1.705 0 3.694 0 4.262.654.569 0 0 .653-1.704.653-1.705 0-3.694 0-4.262-.653-.853 0 0-.654 1.704-.654z"/><path d="m644.162 231.395c1.704 0 3.978 0 4.546.654.852.654 0 .654-1.705.654s-3.978 0-4.546-.654c-.853 0-.284-.654 1.705-.654z"/><path d="m626.261 224.205c1.989 0 4.262 0 5.115.654.852.653 0 .653-1.705.653-1.989 0-3.978 0-5.115-.653-.852-.654 0-.654 1.705-.654z"/><path d="m606.656 215.707c1.989 0 4.546.654 5.399.654.852.654.284.654-1.705.654s-4.262-.654-5.399-.654c-1.136 0-.284-.654 1.705-.654z"/><path d="m584.209 206.556c1.989 0 4.83.654 5.967.654 1.137.653.284.654-1.705.654s-4.83-.654-5.967-.654c-1.136 0-.284-.654 1.705-.654z"/><path d="m558.921 196.098c2.273 0 5.115.653 6.251.653 1.137.654.568.654-1.705.654s-5.114-.654-6.251-.654c-1.136 0-.568-.653 1.705-.653z"/><path d="m530.223 184.332c2.558 0 5.683.653 7.104 1.307 1.42.654.568 1.307-1.705 1.307s-5.399-.653-7.103-1.307c-1.421-.654-.853-1.307 1.704-1.307z"/><path d="m496.98 170.605c2.557 0 5.967.654 7.671 1.308 1.705.653.853 1.307-1.704 1.307-2.558 0-5.967-.654-7.672-1.307-1.705-.654-.852-1.308 1.705-1.308z"/><path d="m458.337 154.917c2.842 0 6.82.654 8.808 1.308 1.989.653 1.137 1.307-1.42 1.307-2.842 0-6.535-.654-8.524-1.307-2.273-.654-1.705-1.308 1.136-1.308z"/><path d="m412.592 135.961c3.125 0 7.387.654 9.944 1.961 2.273 1.308 1.705 1.961-1.42 1.961-3.126 0-7.388-.653-9.661-1.961-2.557-1.307-1.989-1.961 1.137-1.961z"/><path d="m357.754 113.737c3.409 0 8.524.653 11.365 1.961 2.841 1.307 2.273 1.961-.852 1.961-3.41 0-8.24-.654-11.082-1.961-3.125-1.308-2.841-1.961.569-1.961z"/><path d="m290.982 85.6296c3.693 0 9.66 1.3073 13.07 2.6146s3.125 2.6147-.568 2.6147c-3.694 0-9.377-1.3074-13.071-2.6147-3.125-1.3073-3.125-2.6146.569-2.6146z"/><path d="m207.73 51.6394c4.262 0 11.366 1.3074 15.628 3.2683 4.262 1.961 4.546 3.2683.284 3.2683s-11.081-1.3073-15.343-3.2683c-4.547-1.9609-4.547-3.2683-.569-3.2683z"/><path d="m101.179 7.19065c4.831 0 13.355 1.96096 19.037 4.57555 5.683 2.6147 6.251 3.922 1.705 3.922-4.83 0-13.07-1.961-18.753-3.922-5.9666-2.61459-6.819-4.57554-1.989-4.57555z"/><path d="m703.262 267.346h3.125c.569 0-.284.654-1.42.654-1.421 0-2.842 0-3.126-.654z"/><path d="m692.749 263.425c1.42 0 2.841 0 3.409.653.569 0-.284.654-1.42.654-1.137 0-2.842 0-3.41-.654-.568-.653.284-.653 1.421-.653z"/><path d="m681.668 258.849c1.42 0 3.125 0 3.693.653.569 0-.284.654-1.42.654-1.421 0-3.126 0-3.694-.654-.852 0 0-.653 1.421-.653z"/><path d="m669.166 254.274c1.42 0 3.125-.001 3.694.653.568 0 0 .654-1.705.654-1.421 0-3.126 0-3.694-.654-.284 0 .284-.653 1.705-.653z"/><path d="m655.811 249.697c1.421 0 3.41.001 3.978.654.568 0 0 .654-1.705.654-1.42 0-3.409 0-3.978-.654-.568-.653.285-.654 1.705-.654z"/><path d="m641.32 243.815c1.705 0 3.41 0 4.262.653.853 0 0 .654-1.704.654-1.705 0-3.41 0-4.262-.654-.853 0 0-.653 1.704-.653z"/><path d="m625.125 237.932c1.705 0 3.693 0 4.546.654.852 0 0 .653-1.705.653s-3.694 0-4.546-.653c-.852 0 0-.654 1.705-.654z"/><path d="m607.224 231.395c1.705 0 3.978 0 4.831.654.852.654.284.654-1.705.654-1.705 0-3.978 0-4.831-.654-.852 0 0-.654 1.705-.654z"/><path d="m587.619 224.205c1.989 0 4.262 0 5.114.654.853.653.284.653-1.705.653-1.988 0-4.262 0-5.114-.653-.852 0-.284-.654 1.705-.654z"/><path d="m565.456 216.361c1.989 0 4.546.654 5.683.654 1.137.653.284.653-1.705.653s-4.546-.653-5.683-.653c-1.136-.654-.284-.654 1.705-.654z"/><path d="m540.737 207.21c1.989 0 4.83.653 5.966.653 1.137.654.569.654-1.704.654-1.989 0-4.831-.654-5.967-.654-1.137-.653-.568-.653 1.705-.653z"/><path d="m512.607 196.752c2.273 0 5.115.653 6.535.653 1.421.654.853.654-1.42.654-2.274 0-5.115-.654-6.536-.654-1.704-.654-.852-.653 1.421-.653z"/><path d="m480.5 184.332c2.557 0 5.682.653 7.387 1.307s.853 1.307-1.42 1.307c-2.274 0-5.683-.653-7.388-1.307s-1.137-1.307 1.421-1.307z"/><path d="m443.562 171.259c2.558 0 6.252.654 8.24 1.307 1.989.654 1.137 1.308-1.42 1.308s-6.251-.654-7.956-1.308c-2.273-1.307-1.705-1.307 1.136-1.307z"/><path d="m400.374 154.917c2.841 0 6.819.654 9.092 1.308 2.273.653 1.705 1.307-1.136 1.307-2.842 0-6.82-.654-9.093-1.307-2.273-.654-1.705-1.308 1.137-1.308z"/><path d="m349.513 135.961c3.126 0 7.672.654 10.229 1.961 2.557.654 2.273 1.961-.852 1.961-3.126 0-7.672-.653-10.229-1.961-2.557-.653-2.273-1.961.852-1.961z"/><path d="m288.425 113.737c3.409 0 8.808.653 11.933 1.961 3.126 1.307 2.842 1.961-.284 1.961-3.41 0-8.524-.654-11.649-1.961-3.41-1.308-3.126-1.961 0-1.961z"/><path d="m214.265 86.2832c3.694 0 9.945 1.3073 13.923 2.6147 3.694 1.3073 3.978 2.6146.284 2.6146s-9.661-1.3073-13.638-2.6146c-4.262-1.3074-4.263-2.6147-.569-2.6147z"/><path d="m121.637 51.6394c4.262 0 11.65 1.3074 16.48 3.2683 4.83 1.961 5.399 3.2683 1.137 3.2683s-11.366-1.3073-16.196-3.2683c-5.115-1.3073-5.683-3.2683-1.421-3.2683z"/><path d="m2.86872 7.84422c4.8303 0 13.92258 1.96105 20.17348 4.57568 6.251 2.6146 7.3876 3.9219 2.8414 3.9219-4.8303 0-13.6385-1.9609-19.88946-3.9219-6.53511-2.61463-7.95572-4.57568-3.12542-4.57568z"/></g></svg>