<svg width="66" height="64" viewBox="0 0 66 64" fill="none" xmlns="http://www.w3.org/2000/svg">
<path fill-rule="evenodd" clip-rule="evenodd" d="M47.1046 0.000285871H15.9127C15.3133 9.38728 8.61797 15.8338 3.05176e-05 18.0957C2.4316 38.6001 13.5716 54.9877 32.8545 63.2777C49.2761 56.1752 61.3548 42.8299 64.9173 26.1142C68.0388 11.9546 62.384 -0.0675719 47.1046 0.000285871ZM62.7006 25.6166C59.172 41.8572 47.8172 53.9812 32.8658 60.767C15.9014 53.2008 5.25901 38.5548 2.49946 19.713C10.4954 16.976 16.58 10.8236 17.9484 2.29614H47.116C60.9363 2.23959 65.4602 12.9611 62.7006 25.6166Z" fill="white"/>
<path fill-rule="evenodd" clip-rule="evenodd" d="M36.5506 23.9763L51.9882 22.8453C52.1472 22.8453 52.2997 22.7822 52.4121 22.6697C52.5245 22.5573 52.5876 22.4049 52.5876 22.2459C52.5876 22.0869 52.5245 21.9345 52.4121 21.822C52.2997 21.7096 52.1472 21.6465 51.9882 21.6465H35.9964L36.5506 23.9763Z" fill="white"/>
<path fill-rule="evenodd" clip-rule="evenodd" d="M21.3622 27.7876C21.2742 28.0042 21.2457 28.2404 21.2796 28.4717C21.3135 28.703 21.4087 28.9211 21.5551 29.1033C21.7016 29.2855 21.8941 29.4253 22.1127 29.5081C22.3313 29.591 22.5681 29.6139 22.7985 29.5745C24.1896 29.2692 26.4968 26.3626 27.4355 25.209L27.8087 24.6322L31.2016 24.3834L31.8462 21.6239H29.7087L36.076 12.1351L40.1362 10.744C40.6451 10.5631 40.4981 10.2011 40.238 10.2011H36.4266L36.0195 6.07313C36.0078 6.02038 35.9784 5.9732 35.9362 5.93939C35.8941 5.90557 35.8417 5.88715 35.7876 5.88715C35.7336 5.88715 35.6812 5.90557 35.639 5.93939C35.5969 5.9732 35.5675 6.02038 35.5558 6.07313L34.3117 10.2238H30.342C30.0028 10.2238 29.9575 10.6196 30.342 10.7666L33.9611 12.1351L25.445 21.6691H7.45134C7.28637 21.6691 7.12816 21.7347 7.0115 21.8513C6.89485 21.968 6.82932 22.1262 6.82932 22.2911C6.82932 22.4561 6.89485 22.6143 7.0115 22.731C7.12816 22.8476 7.28637 22.9132 7.45134 22.9132L23.0813 24.8811C22.4063 25.7859 21.83 26.7603 21.3622 27.7876Z" fill="white"/>
<path fill-rule="evenodd" clip-rule="evenodd" d="M34.6643 38.3083L32.9792 29.9618L30.9887 38.3083H34.6643ZM44.9448 40.9434L48.8805 36.1481V35.9785C48.8805 35.447 48.5752 34.9493 47.6138 34.9493V33.8184H52.477V34.9493C51.2782 34.9493 51.2442 35.413 51.2442 36.6118V42.1762C51.2442 43.4089 51.3347 43.8387 52.477 43.8387V44.9697H47.6138V43.8048C48.7448 43.8048 48.8805 43.4089 48.8805 42.1423V37.8446L44.9448 42.6738V42.8774C44.9448 43.5446 45.318 43.8387 46.2114 43.8387V44.9697H34.1101V43.8048C34.981 43.8048 35.5465 43.7369 35.5465 42.8774C35.4453 41.7498 35.2447 40.6333 34.9471 39.541H30.5928L30.0274 41.803C29.5863 43.2732 29.7672 43.8048 31.328 43.8048V44.9357H21.2398V43.8048C22.4386 43.8048 22.5743 43.4089 22.5743 42.1423V37.019L19.5094 44.6078L16.4106 36.7815V42.3119C16.4106 43.375 16.5463 43.8726 17.7112 43.8726V45.0036H13.979V43.8048C15.2457 43.8048 15.3135 43.0357 15.3135 41.9726V36.6118C15.3135 35.6505 15.3135 34.9493 14.0808 34.9493V33.8184H18.0392L20.2106 39.541L22.3707 33.8184H26.1934V34.9493C24.9946 34.9493 24.9607 35.413 24.9607 36.6118V42.1762C24.9607 43.2393 25.0624 43.5786 25.3904 43.6804C26.1255 43.9405 27.494 43.8726 27.8898 43.0696C28.2616 42.2828 28.5534 41.4606 28.7607 40.6155L33.9179 20.3373L38.634 40.2422C39.1316 42.4137 39.437 42.9452 39.9007 43.4089C40.3644 43.8726 41.8912 44.1101 42.434 43.5107C42.5584 43.375 42.6263 43.1375 42.6263 42.1762V36.6118C42.6263 35.3452 42.5245 34.9493 41.3596 34.9493V33.8184H46.2114V34.9493C45.0126 34.9493 44.9448 35.4469 44.9448 36.6118V40.9434Z" fill="white"/>
</svg>
