<svg width="122" height="77" viewBox="0 0 122 77" fill="none" xmlns="http://www.w3.org/2000/svg">
<g clip-path="url(#clip0_2538_20)">
<path fill-rule="evenodd" clip-rule="evenodd" d="M60.9999 11.6442L61.3318 11.5529C44.8235 16.642 31.7622 25.3606 31.4935 31.7639C31.2059 38.6183 45.6833 40.2256 63.8215 35.357C81.9597 30.4884 96.9011 20.981 97.1875 14.1273C97.336 10.5762 93.5154 8.43465 87.2792 7.87097C94.9021 8.20918 99.6773 10.4163 99.6773 14.3564C99.6773 21.8664 82.3576 32.8304 60.9999 38.8446C39.6423 44.8589 22.3226 43.6409 22.3226 36.1311C22.3226 28.6213 39.6423 17.6571 60.9999 11.6449" fill="white"/>
<path fill-rule="evenodd" clip-rule="evenodd" d="M30.7138 51.1308L84.3316 0L79.4715 40.1941L70.6059 30.1103L30.7138 51.1308Z" fill="white"/>
<path d="M9.46512 68.2358C9.46512 70.3963 7.90032 72.4819 5.19154 72.4819H2.44304V76.7284H6.10352e-05V63.9893H4.5796C7.91916 63.9893 9.46512 65.7707 9.46512 68.2358ZM7.02236 68.2358C7.02236 67.0408 6.06904 66.4158 4.88557 66.4158H2.44304V70.0553H4.88557C6.06973 70.0553 7.02236 69.2971 7.02236 68.2358Z" fill="white"/>
<path d="M24.5075 70.3568C24.508 71.6769 24.1143 72.9675 23.3763 74.0653C22.6384 75.1631 21.5892 76.0189 20.3616 76.5243C19.134 77.0298 17.783 77.1623 16.4796 76.9051C15.1761 76.6478 13.9788 76.0123 13.039 75.0791C12.0991 74.1458 11.459 72.9566 11.1996 71.6619C10.9402 70.3672 11.0731 69.0252 11.5815 67.8056C12.09 66.5859 12.9511 65.5435 14.056 64.81C15.1609 64.0766 16.46 63.6851 17.7889 63.6851C19.5695 63.688 21.2764 64.3917 22.5357 65.6422C23.795 66.8927 24.504 68.588 24.5075 70.3568ZM22.0645 70.3568C22.0643 69.517 21.8133 68.6962 21.3435 67.9981C20.8736 67.2999 20.206 66.7558 19.4249 66.4346C18.6438 66.1134 17.7843 66.0294 16.9552 66.1933C16.126 66.3572 15.3644 66.7617 14.7667 67.3555C14.1689 67.9493 13.7618 68.7059 13.5968 69.5295C13.4319 70.3531 13.5164 71.2069 13.8399 71.9828C14.1633 72.7587 14.7111 73.4219 15.4139 73.8886C16.1167 74.3553 16.9431 74.6045 17.7885 74.6047C18.3503 74.6058 18.9069 74.4968 19.4263 74.2837C19.9456 74.0706 20.4175 73.7578 20.8148 73.3631C21.2121 72.9684 21.527 72.4997 21.7415 71.9838C21.9559 71.4679 22.0657 70.915 22.0645 70.3568Z" fill="white"/>
<path d="M36.2449 73.2974L37.1793 75.4976C36.019 76.4822 34.5448 77.0263 33.0188 77.0333C29.2589 77.0333 26.1867 74.037 26.1867 70.3593C26.1867 66.6817 29.2589 63.6876 33.0188 63.6876C34.4501 63.6876 36.0923 64.2179 37.1793 65.2039L36.2439 67.4032C35.3928 66.5754 34.2485 66.1127 33.0574 66.1146C30.6146 66.1146 28.6297 68.0086 28.6297 70.3593C28.6297 72.7101 30.6146 74.6072 33.0574 74.6072C33.65 74.6124 34.2375 74.4992 34.7852 74.2742C35.3328 74.0492 35.8292 73.717 36.2449 73.2974Z" fill="white"/>
<path d="M50.7225 76.7284H47.6306L42.7821 71.155V76.7284H40.3398V63.9893H42.7821V69.2596L47.3253 63.9893H50.4175L44.9193 70.074L50.7225 76.7284Z" fill="white"/>
<path d="M64.6666 70.3568C64.667 71.6769 64.2733 72.9676 63.5353 74.0654C62.7973 75.1633 61.748 76.019 60.5203 76.5245C59.2926 77.0299 57.9416 77.1623 56.6381 76.905C55.3347 76.6476 54.1373 76.012 53.1975 75.0786C52.2577 74.1452 51.6177 72.9559 51.3585 71.6611C51.0992 70.3663 51.2323 69.0243 51.741 67.8046C52.2496 66.585 53.111 65.5427 54.2161 64.8094C55.3212 64.0761 56.6204 63.6849 57.9493 63.6851C59.7298 63.688 61.4366 64.3918 62.6956 65.6423C63.9547 66.8929 64.6634 68.5882 64.6666 70.3568ZM62.2243 70.3568C62.224 69.517 61.9731 68.6961 61.5032 67.9979C61.0333 67.2998 60.3655 66.7557 59.5843 66.4345C58.8032 66.1133 57.9437 66.0294 57.1145 66.1934C56.2853 66.3574 55.5237 66.762 54.926 67.3559C54.3283 67.9498 53.9213 68.7065 53.7564 69.5302C53.5916 70.3539 53.6763 71.2077 53.9999 71.9836C54.3235 72.7594 54.8715 73.4226 55.5745 73.8891C56.2774 74.3557 57.1039 74.6047 57.9493 74.6047C58.5111 74.6056 59.0675 74.4964 59.5866 74.2832C60.1057 74.07 60.5774 73.7571 60.9745 73.3625C61.3716 72.9678 61.6864 72.4991 61.9007 71.9833C62.1151 71.4676 62.2248 70.9148 62.2236 70.3568H62.2243Z" fill="white"/>
<path d="M76.4033 73.2974L77.3386 75.4967C76.1784 76.4811 74.7044 77.0252 73.1786 77.0323C69.4186 77.0323 66.3465 74.0361 66.3465 70.3584C66.3465 66.6807 69.4186 63.6867 73.1786 63.6867C74.6101 63.6867 76.2505 64.217 77.3386 65.203L76.4033 67.4022C75.5522 66.5746 74.4081 66.1118 73.2171 66.1137C70.7744 66.1137 68.789 68.0076 68.789 70.3584C68.789 72.7092 70.7744 74.6063 73.2171 74.6063C73.8094 74.6115 74.3967 74.4982 74.9441 74.2734C75.4914 74.0485 75.9877 73.7166 76.4033 73.2974Z" fill="white"/>
<path d="M94.5843 76.7284H91.9886L90.9202 68.3873L87.5625 76.7284H86.3413L82.982 68.3873L81.9132 76.7284H79.3172L81.1496 63.9893H83.5921L86.9514 72.1793L90.3107 63.9893H92.7535L94.5843 76.7284Z" fill="white"/>
<path d="M109.327 70.3568C109.328 71.6769 108.934 72.9675 108.196 74.0653C107.458 75.1631 106.409 76.0189 105.181 76.5243C103.954 77.0298 102.603 77.1623 101.299 76.9051C99.996 76.6478 98.7986 76.0123 97.8588 75.0791C96.9189 74.1458 96.2788 72.9566 96.0194 71.6619C95.76 70.3672 95.8929 69.0252 96.4013 67.8056C96.9098 66.5859 97.7709 65.5435 98.8759 64.81C99.9808 64.0766 101.28 63.6851 102.609 63.6851C104.389 63.6876 106.097 64.3912 107.356 65.6418C108.615 66.8924 109.324 68.5879 109.327 70.3568ZM106.885 70.3568C106.884 69.517 106.633 68.6961 106.163 67.9979C105.694 67.2998 105.026 66.7557 104.245 66.4345C103.463 66.1133 102.604 66.0294 101.775 66.1934C100.946 66.3574 100.184 66.762 99.5863 67.3559C98.9886 67.9498 98.5816 68.7065 98.4168 69.5302C98.2519 70.3539 98.3367 71.2077 98.6603 71.9836C98.9839 72.7594 99.5318 73.4226 100.235 73.8891C100.938 74.3557 101.764 74.6047 102.61 74.6047C103.171 74.6057 103.728 74.4966 104.247 74.2834C104.766 74.0703 105.238 73.7574 105.635 73.3628C106.033 72.9681 106.347 72.4994 106.562 71.9836C106.776 71.4677 106.886 70.9149 106.885 70.3568H106.885Z" fill="white"/>
<path d="M121.065 73.2974L122 75.4967C120.84 76.4812 119.366 77.0253 117.84 77.0323C114.08 77.0323 111.007 74.0361 111.007 70.3584C111.007 66.6807 114.08 63.6867 117.84 63.6867C119.272 63.6867 120.912 64.217 122 65.203L121.065 67.4022C120.214 66.5745 119.069 66.1118 117.878 66.1137C115.435 66.1137 113.451 68.0076 113.451 70.3584C113.451 72.7092 115.435 74.6063 117.878 74.6063C118.47 74.6114 119.058 74.4982 119.605 74.2733C120.153 74.0485 120.649 73.7166 121.065 73.2974Z" fill="white"/>
</g>
<defs>
<clipPath id="clip0_2538_20">
<rect width="122" height="77" fill="white"/>
</clipPath>
</defs>
</svg>
