<svg xmlns="http://www.w3.org/2000/svg" width="1070" height="333.437" viewBox="0 0 1070 333.437">
  <defs>
    <style>
      .cls-1 {
        fill: #fff;
        fill-rule: evenodd;
      }
    </style>
  </defs>
  <path id="МАИ" class="cls-1" d="M533.217,889.168A12.2,12.2,0,0,0,545.6,876.784V722.449l42.871,75.262a42.934,42.934,0,0,0,6.192,7.621q3.807,3.819,10.48,3.811H634.2q7.145,0,10.955-3.811a43.618,43.618,0,0,0,6.193-7.621l42.871-75.262V876.784a12.2,12.2,0,0,0,12.384,12.384h71.452a12.2,12.2,0,0,0,12.384-12.384V568.115a12.2,12.2,0,0,0-12.384-12.385H714.7q-8.574,0-12.861,4.763t-5.716,6.669L619.911,699.585,543.7,567.162q-1.429-1.9-5.716-6.669-4.287-4.755-12.861-4.763H461.766a12.773,12.773,0,0,0-9.05,3.572,11.587,11.587,0,0,0-3.811,8.813V876.784a11.574,11.574,0,0,0,3.811,8.812,12.768,12.768,0,0,0,9.05,3.572h71.451Zm372.973,0q8.574,0,12.147-3.81a25.527,25.527,0,0,0,5-7.145L938.105,838.2h114.8l14.77,40.013a23.648,23.648,0,0,0,5.24,7.145c2.54,2.545,6.5,3.81,11.91,3.81h73.35a10.561,10.561,0,0,0,10.48-10.479,10.8,10.8,0,0,0-.47-3.334L1059.1,570.5a22.911,22.911,0,0,0-6.2-10q-4.755-4.755-13.81-4.763H951.919q-8.574,0-13.338,4.763a27.561,27.561,0,0,0-6.668,10L823.307,875.355a11.215,11.215,0,0,0,2.381,10.717,9.306,9.306,0,0,0,7.146,3.1H906.19Zm89.076-238.646L1030.99,757.7H960.017ZM1281.54,889.168q7.62,0,11.43-3.1a27.988,27.988,0,0,0,6.19-6.907l117.66-161.956V876.784a12.2,12.2,0,0,0,12.39,12.384h77.64a12.2,12.2,0,0,0,12.38-12.384V568.115a12.2,12.2,0,0,0-12.38-12.385h-69.07a18.465,18.465,0,0,0-10.48,2.858,25.4,25.4,0,0,0-7.14,7.145L1302.5,736.263V568.115a12.2,12.2,0,0,0-12.39-12.385h-77.16a12.756,12.756,0,0,0-9.05,3.572,11.572,11.572,0,0,0-3.81,8.813V876.784a11.559,11.559,0,0,0,3.81,8.812,12.187,12.187,0,0,0,8.57,3.572h69.07Z" transform="translate(-449.063 -555.719)"/>
</svg>
