<svg width="168" height="55" viewBox="0 0 168 55" fill="none" xmlns="http://www.w3.org/2000/svg">
<path d="M0.724 6.88C3.992 3.612 10.604 0.495996 17.444 0.495996C27.78 0.495996 34.24 6.652 34.24 15.544C34.24 23.904 28.084 30.592 20.864 37.736L10.832 47.616H37.356V54H1.408V48.528L15.62 34.164C22.612 27.096 27.324 22.308 27.324 16C27.324 10.376 22.992 7.108 16.912 7.108C12.656 7.108 7.868 8.932 4.068 11.972L0.724 6.88ZM81.9264 27.628C81.9264 43.512 75.3904 54.684 62.3944 54.684C49.3984 54.684 42.8624 43.512 42.8624 27.628C42.8624 11.668 49.3984 0.495996 62.3944 0.495996C75.3904 0.495996 81.9264 11.668 81.9264 27.628ZM49.9304 27.628C49.9304 39.94 53.5784 48.072 62.3944 48.072C71.2104 48.072 74.8584 39.864 74.8584 27.628C74.8584 15.24 71.2864 7.108 62.3944 7.108C53.5024 7.108 49.9304 15.24 49.9304 27.628ZM87.1176 6.88C90.3856 3.612 96.9976 0.495996 103.838 0.495996C114.174 0.495996 120.634 6.652 120.634 15.544C120.634 23.904 114.478 30.592 107.258 37.736L97.2256 47.616H123.75V54H87.8016V48.528L102.014 34.164C109.006 27.096 113.718 22.308 113.718 16C113.718 10.376 109.386 7.108 103.306 7.108C99.0496 7.108 94.2616 8.932 90.4616 11.972L87.1176 6.88ZM167.115 41.84H159.971V54H153.207V41.84H127.367V35L151.535 0.571999H159.971V35.456H167.115V41.84ZM134.359 35.456H153.207V8.628L134.359 35.456Z" fill="white"/>
</svg>
