<svg width="461" height="539" viewBox="0 0 461 539" fill="none" xmlns="http://www.w3.org/2000/svg">
<g clip-path="url(#clip0_981_103)">
<path fill-rule="evenodd" clip-rule="evenodd" d="M278.464 246.196L103.054 213.845L0.548157 352.022L170.477 383.277L278.464 246.196Z" fill="#6BA3EE"/>
<path fill-rule="evenodd" clip-rule="evenodd" d="M0 352.022L168.832 382.728L231.322 539L66.8752 509.391L0 352.022Z" fill="#0271FF"/>
<path fill-rule="evenodd" clip-rule="evenodd" d="M168.284 382.728L278.464 246.196L333.828 394.791L231.322 537.903L168.284 382.728Z" fill="#B9D7FF"/>
<path fill-rule="evenodd" clip-rule="evenodd" d="M441.815 111.309L461 43.8657L410.57 0L391.384 64.1536L441.815 111.309Z" fill="#6BA3EE"/>
<path fill-rule="evenodd" clip-rule="evenodd" d="M410.57 0L391.932 64.7019L329.442 82.2482L347.532 19.1912L410.57 0Z" fill="#0271FF"/>
<path fill-rule="evenodd" clip-rule="evenodd" d="M392.48 63.6053L441.815 111.309L374.391 128.307L329.991 82.2482L392.48 63.6053Z" fill="#B9D7FF"/>
<path fill-rule="evenodd" clip-rule="evenodd" d="M124.432 41.1241L110.728 15.353L76.7419 12.6114L91.5422 41.1241H124.432Z" fill="#6BA3EE"/>
<path fill-rule="evenodd" clip-rule="evenodd" d="M76.7419 12.6114L91.5422 41.6724L75.6456 67.9919L60.8454 40.5758L76.7419 12.6114Z" fill="#0271FF"/>
<path fill-rule="evenodd" clip-rule="evenodd" d="M91.5422 40.5758L124.432 41.1241L106.891 69.6368L76.1938 67.9919L91.5422 40.5758Z" fill="#B9D7FF"/>
</g>
<defs>
<clipPath id="clip0_981_103">
<rect width="461" height="539" fill="white"/>
</clipPath>
</defs>
</svg>
