<svg width="215" height="136" viewBox="0 0 215 136" fill="none" xmlns="http://www.w3.org/2000/svg">
<path d="M3.312 27V2.016H19.08V5.04H6.48V12.816H18.432V15.804H6.48V23.976H19.08V27H3.312ZM36.6114 16.668C36.6114 13.536 34.0194 11.124 31.0674 11.124C28.0794 11.124 25.3074 13.356 25.3074 17.712C25.3074 22.068 28.0794 24.336 31.0674 24.336C34.0194 24.336 36.6114 21.924 36.6114 18.792V16.668ZM22.0674 17.712C22.0674 11.628 26.1354 8.136 30.2034 8.136C34.0914 8.136 36.1434 10.62 36.6114 12.276V0.0359995H39.7434V27H36.6114V23.184C36.1434 24.84 34.0914 27.324 30.2034 27.324C26.1354 27.324 22.0674 23.796 22.0674 17.712ZM57.4613 27V22.824C57.4613 25.092 54.9413 27.324 51.4853 27.324C47.9573 27.324 44.4653 25.128 44.4653 19.764V8.496H47.5973V18.9C47.5973 22.824 49.9373 24.264 52.3853 24.264C54.8333 24.264 57.4613 22.392 57.4613 18.72V8.496H60.5933V27H57.4613ZM78.4403 13.284C77.5763 12.348 76.0283 11.232 73.7963 11.232C70.4123 11.232 67.4603 13.752 67.4603 17.748C67.4603 21.852 70.8443 24.264 74.1923 24.264C76.0643 24.264 77.4323 23.652 78.3323 22.824L80.1323 24.984C78.9443 26.46 76.7123 27.324 74.0843 27.324C69.2243 27.324 64.2563 23.94 64.2563 17.748C64.2563 11.916 69.0083 8.172 73.7963 8.172C77.2883 8.172 79.3403 9.684 80.2763 10.944L78.4403 13.284ZM82.9536 10.332C84.7536 8.964 87.4176 8.172 90.1536 8.172C95.3376 8.172 98.2176 11.052 98.2176 15.588V27H95.1216V22.968C95.1216 24.912 92.7096 27.324 88.9656 27.324C85.4736 27.324 82.1616 25.308 82.1616 21.456C82.1616 17.496 85.9776 15.732 89.6856 15.732C91.8816 15.732 93.6096 16.056 95.1216 16.776V15.66C95.1216 12.636 92.4936 11.16 90.0456 11.16C87.7776 11.16 85.8696 11.88 84.4296 12.924L82.9536 10.332ZM85.3656 21.456C85.3656 23.364 87.1656 24.408 89.4696 24.408C92.0976 24.408 95.1216 22.608 95.1216 20.232V19.62C93.5016 18.828 91.8456 18.504 89.7216 18.504C87.5256 18.504 85.3656 19.512 85.3656 21.456ZM111.526 8.496V11.484H106.774V21.06C106.774 22.932 107.53 24.264 109.402 24.264C110.122 24.264 110.662 24.12 111.346 23.796L112.21 26.532C111.454 27 110.41 27.324 109.114 27.324C105.802 27.324 103.642 25.488 103.642 21.816V11.484H100.474V8.496H103.642V3.78H106.774V8.496H111.526ZM118.304 8.496V27H115.172V8.496H118.304ZM114.704 2.952C114.704 1.836 115.604 0.935999 116.756 0.935999C117.908 0.935999 118.808 1.836 118.808 2.952C118.808 4.068 117.908 4.968 116.756 4.968C115.604 4.968 114.704 4.068 114.704 2.952ZM140.706 17.712C140.706 23.112 136.602 27.324 131.346 27.324C126.09 27.324 121.986 23.112 121.986 17.712C121.986 12.348 126.09 8.172 131.346 8.172C136.602 8.172 140.706 12.348 140.706 17.712ZM125.19 17.712C125.19 21.42 127.854 24.264 131.346 24.264C134.838 24.264 137.502 21.42 137.502 17.712C137.502 14.04 134.838 11.232 131.346 11.232C127.854 11.232 125.19 14.04 125.19 17.712ZM147.52 8.496V12.672C147.52 10.404 150.04 8.172 153.496 8.172C157.024 8.172 160.516 10.368 160.516 15.732V27H157.384V16.596C157.384 12.672 155.044 11.232 152.596 11.232C150.148 11.232 147.52 13.104 147.52 16.776V27H144.388V8.496H147.52ZM4.176 44.496L8.388 58.392L12.6 44.496H15.732L19.908 58.284L24.084 44.496H27.324L21.42 63H18.324L14.112 48.78L9.9 63H6.804L0.9 44.496H4.176ZM33.4505 44.496V63H30.3185V44.496H33.4505ZM29.8505 38.952C29.8505 37.836 30.7505 36.936 31.9025 36.936C33.0545 36.936 33.9545 37.836 33.9545 38.952C33.9545 40.068 33.0545 40.968 31.9025 40.968C30.7505 40.968 29.8505 40.068 29.8505 38.952ZM41.4844 36.036V63H38.3524V36.036H41.4844ZM49.5183 36.036V63H46.3863V36.036H49.5183ZM65.4806 44.496V48.672C65.4806 46.404 68.0006 44.172 71.4566 44.172C74.9846 44.172 78.4766 46.368 78.4766 51.732V63H75.3446V52.596C75.3446 48.672 73.0046 47.232 70.5566 47.232C68.1086 47.232 65.4806 49.104 65.4806 52.776V63H62.3486V44.496H65.4806ZM100.855 53.712C100.855 59.112 96.7514 63.324 91.4954 63.324C86.2394 63.324 82.1354 59.112 82.1354 53.712C82.1354 48.348 86.2394 44.172 91.4954 44.172C96.7514 44.172 100.855 48.348 100.855 53.712ZM85.3394 53.712C85.3394 57.42 88.0034 60.264 91.4954 60.264C94.9874 60.264 97.6514 57.42 97.6514 53.712C97.6514 50.04 94.9874 47.232 91.4954 47.232C88.0034 47.232 85.3394 50.04 85.3394 53.712ZM115.774 36.036V63H112.642V36.036H115.774ZM138.176 53.712C138.176 59.112 134.072 63.324 128.816 63.324C123.56 63.324 119.456 59.112 119.456 53.712C119.456 48.348 123.56 44.172 128.816 44.172C134.072 44.172 138.176 48.348 138.176 53.712ZM122.66 53.712C122.66 57.42 125.324 60.264 128.816 60.264C132.308 60.264 134.972 57.42 134.972 53.712C134.972 50.04 132.308 47.232 128.816 47.232C125.324 47.232 122.66 50.04 122.66 53.712ZM144.99 44.496V48.672C144.99 46.404 147.51 44.172 150.966 44.172C154.494 44.172 157.986 46.368 157.986 51.732V63H154.854V52.596C154.854 48.672 152.514 47.232 150.066 47.232C147.618 47.232 144.99 49.104 144.99 52.776V63H141.858V44.496H144.99ZM176.189 44.496H179.321V61.524C179.321 68.76 174.533 71.1 170.249 71.1C167.009 71.1 164.237 69.984 162.725 68.724L164.201 66.06C165.641 67.14 167.765 68.076 169.817 68.076C172.697 68.076 176.189 66.96 176.189 61.2V59.22C175.721 60.876 173.669 63.36 169.781 63.36C165.713 63.36 161.645 59.868 161.645 53.784C161.645 47.7 165.713 44.172 169.781 44.172C173.669 44.172 175.721 46.656 176.189 48.312V44.496ZM164.885 53.784C164.885 58.14 167.657 60.372 170.645 60.372C173.597 60.372 176.189 57.96 176.189 54.828V52.704C176.189 49.572 173.597 47.16 170.645 47.16C167.657 47.16 164.885 49.428 164.885 53.784ZM199.743 60.048C198.123 62.208 195.747 63.324 192.651 63.324C187.431 63.324 183.003 59.94 183.003 53.568C183.003 47.844 186.747 44.172 191.715 44.172C196.719 44.172 199.959 47.736 199.959 52.992V54.648H186.279C186.495 58.14 189.195 60.372 192.651 60.372C195.063 60.372 196.611 59.256 197.619 58.104L199.743 60.048ZM186.351 51.912H196.719C196.539 49.032 194.559 47.088 191.643 47.088C188.223 47.088 186.531 49.752 186.351 51.912ZM206.775 44.496V48.852C207.567 46.008 210.087 43.884 213.903 44.496L214.479 47.484C210.087 46.944 206.955 49.752 206.955 53.244V63H203.823V44.496H206.775ZM5.94 72.036V84.276C6.408 82.62 8.46 80.136 12.348 80.136C16.416 80.136 20.484 83.628 20.484 89.712C20.484 95.796 16.416 99.324 12.348 99.324C8.46 99.324 6.408 96.84 5.94 95.184V99H2.808V72.036H5.94ZM5.94 90.792C5.94 93.924 8.532 96.336 11.484 96.336C14.472 96.336 17.244 94.068 17.244 89.712C17.244 85.356 14.472 83.124 11.484 83.124C8.532 83.124 5.94 85.536 5.94 88.668V90.792ZM40.0379 96.048C38.4179 98.208 36.0419 99.324 32.9459 99.324C27.7259 99.324 23.2979 95.94 23.2979 89.568C23.2979 83.844 27.0419 80.172 32.0099 80.172C37.0139 80.172 40.2539 83.736 40.2539 88.992V90.648H26.5739C26.7899 94.14 29.4899 96.372 32.9459 96.372C35.3579 96.372 36.9059 95.256 37.9139 94.104L40.0379 96.048ZM26.6459 87.912H37.0139C36.8339 85.032 34.8539 83.088 31.9379 83.088C28.5179 83.088 26.8259 85.752 26.6459 87.912ZM60.7944 80.496V83.484H56.0424V93.06C56.0424 94.932 56.7984 96.264 58.6704 96.264C59.3904 96.264 59.9304 96.12 60.6144 95.796L61.4784 98.532C60.7224 99 59.6784 99.324 58.3824 99.324C55.0704 99.324 52.9104 97.488 52.9104 93.816V83.484H49.7424V80.496H52.9104V75.78H56.0424V80.496H60.7944ZM67.5717 72.036V84.672C67.5717 82.404 70.0917 80.172 73.5477 80.172C77.0757 80.172 80.5677 82.368 80.5677 87.732V99H77.4357V88.596C77.4357 84.672 75.0957 83.232 72.6477 83.232C70.1997 83.232 67.5717 85.104 67.5717 88.776V99H64.4397V72.036H67.5717ZM100.967 96.048C99.3465 98.208 96.9705 99.324 93.8745 99.324C88.6545 99.324 84.2265 95.94 84.2265 89.568C84.2265 83.844 87.9705 80.172 92.9385 80.172C97.9425 80.172 101.183 83.736 101.183 88.992V90.648H87.5025C87.7185 94.14 90.4185 96.372 93.8745 96.372C96.2865 96.372 97.8345 95.256 98.8425 94.104L100.967 96.048ZM87.5745 87.912H97.9425C97.7625 85.032 95.7825 83.088 92.8665 83.088C89.4465 83.088 87.7545 85.752 87.5745 87.912ZM124.207 85.176C123.019 83.844 120.931 82.98 118.951 82.98C116.971 82.98 115.207 83.952 115.207 85.572C115.207 87.192 116.899 87.66 118.663 87.984L121.003 88.416C124.387 89.028 126.763 90.396 126.763 93.708C126.763 97.092 123.919 99.324 119.599 99.324C116.827 99.324 113.515 98.352 111.895 96.732L113.623 94.32C115.171 95.724 117.547 96.516 119.671 96.516C121.795 96.516 123.559 95.652 123.559 93.888C123.559 92.268 122.083 91.692 120.247 91.368L117.943 90.972C114.703 90.432 112.003 89.208 112.003 85.824C112.003 82.44 115.099 80.172 119.275 80.172C122.263 80.172 124.927 81.396 125.971 82.8L124.207 85.176ZM129.995 82.332C131.795 80.964 134.459 80.172 137.195 80.172C142.379 80.172 145.259 83.052 145.259 87.588V99H142.163V94.968C142.163 96.912 139.751 99.324 136.007 99.324C132.515 99.324 129.203 97.308 129.203 93.456C129.203 89.496 133.019 87.732 136.727 87.732C138.923 87.732 140.651 88.056 142.163 88.776V87.66C142.163 84.636 139.535 83.16 137.087 83.16C134.819 83.16 132.911 83.88 131.471 84.924L129.995 82.332ZM132.407 93.456C132.407 95.364 134.207 96.408 136.511 96.408C139.139 96.408 142.163 94.608 142.163 92.232V91.62C140.543 90.828 138.887 90.504 136.763 90.504C134.567 90.504 132.407 91.512 132.407 93.456ZM153.093 80.496V84.384C153.093 82.26 155.325 80.172 158.565 80.172C160.869 80.172 163.245 81.324 164.325 84.06C164.901 81.828 167.349 80.172 170.085 80.172C173.433 80.172 176.745 82.188 176.745 87.372V99H173.613V87.948C173.613 84.564 171.633 83.232 169.365 83.232C166.953 83.232 164.901 85.176 164.901 88.056V99H161.805V88.092C161.805 84.708 159.789 83.232 157.557 83.232C155.109 83.232 153.093 85.176 153.093 88.02V99H149.961V80.496H153.093ZM197.14 96.048C195.52 98.208 193.144 99.324 190.048 99.324C184.828 99.324 180.4 95.94 180.4 89.568C180.4 83.844 184.144 80.172 189.112 80.172C194.116 80.172 197.356 83.736 197.356 88.992V90.648H183.676C183.892 94.14 186.592 96.372 190.048 96.372C192.46 96.372 194.008 95.256 195.016 94.104L197.14 96.048ZM183.748 87.912H194.116C193.936 85.032 191.956 83.088 189.04 83.088C185.62 83.088 183.928 85.752 183.748 87.912ZM2.232 118.332C4.032 116.964 6.696 116.172 9.432 116.172C14.616 116.172 17.496 119.052 17.496 123.588V135H14.4V130.968C14.4 132.912 11.988 135.324 8.244 135.324C4.752 135.324 1.44 133.308 1.44 129.456C1.44 125.496 5.256 123.732 8.964 123.732C11.16 123.732 12.888 124.056 14.4 124.776V123.66C14.4 120.636 11.772 119.16 9.324 119.16C7.056 119.16 5.148 119.88 3.708 120.924L2.232 118.332ZM4.644 129.456C4.644 131.364 6.444 132.408 8.748 132.408C11.376 132.408 14.4 130.608 14.4 128.232V127.62C12.78 126.828 11.124 126.504 9 126.504C6.804 126.504 4.644 127.512 4.644 129.456ZM33.4294 121.176C32.2414 119.844 30.1534 118.98 28.1734 118.98C26.1934 118.98 24.4294 119.952 24.4294 121.572C24.4294 123.192 26.1214 123.66 27.8854 123.984L30.2254 124.416C33.6094 125.028 35.9854 126.396 35.9854 129.708C35.9854 133.092 33.1414 135.324 28.8214 135.324C26.0494 135.324 22.7374 134.352 21.1174 132.732L22.8454 130.32C24.3934 131.724 26.7694 132.516 28.8934 132.516C31.0174 132.516 32.7814 131.652 32.7814 129.888C32.7814 128.268 31.3054 127.692 29.4694 127.368L27.1654 126.972C23.9254 126.432 21.2254 125.208 21.2254 121.824C21.2254 118.44 24.3214 116.172 28.4974 116.172C31.4854 116.172 34.1494 117.396 35.1934 118.8L33.4294 121.176ZM50.8542 108.036V120.276C51.3222 118.62 53.3742 116.136 57.2622 116.136C61.3302 116.136 65.3982 119.628 65.3982 125.712C65.3982 131.796 61.3302 135.324 57.2622 135.324C53.3742 135.324 51.3222 132.84 50.8542 131.184V135H47.7222V108.036H50.8542ZM50.8542 126.792C50.8542 129.924 53.4462 132.336 56.3982 132.336C59.3862 132.336 62.1582 130.068 62.1582 125.712C62.1582 121.356 59.3862 119.124 56.3982 119.124C53.4462 119.124 50.8542 121.536 50.8542 124.668V126.792ZM84.9521 132.048C83.3321 134.208 80.9561 135.324 77.8601 135.324C72.6401 135.324 68.2121 131.94 68.2121 125.568C68.2121 119.844 71.9561 116.172 76.9241 116.172C81.9281 116.172 85.1681 119.736 85.1681 124.992V126.648H71.4881C71.7041 130.14 74.4041 132.372 77.8601 132.372C80.2721 132.372 81.8201 131.256 82.8281 130.104L84.9521 132.048ZM71.5601 123.912H81.9281C81.7481 121.032 79.7681 119.088 76.8521 119.088C73.4321 119.088 71.7401 121.752 71.5601 123.912ZM97.9971 116.496V119.484H93.5331V135H90.4011V119.484H86.8731V116.496H90.4011V114.012C90.4011 109.944 92.6331 107.712 96.2331 107.712C97.2051 107.712 98.1771 107.964 98.6091 108.216L98.0691 110.952C97.6731 110.772 97.0611 110.628 96.4851 110.628C94.6131 110.628 93.5331 111.78 93.5331 114.048V116.496H97.9971ZM118.152 125.712C118.152 131.112 114.048 135.324 108.792 135.324C103.536 135.324 99.4323 131.112 99.4323 125.712C99.4323 120.348 103.536 116.172 108.792 116.172C114.048 116.172 118.152 120.348 118.152 125.712ZM102.636 125.712C102.636 129.42 105.3 132.264 108.792 132.264C112.284 132.264 114.948 129.42 114.948 125.712C114.948 122.04 112.284 119.232 108.792 119.232C105.3 119.232 102.636 122.04 102.636 125.712ZM124.786 116.496V120.852C125.578 118.008 128.098 115.884 131.914 116.496L132.49 119.484C128.098 118.944 124.966 121.752 124.966 125.244V135H121.834V116.496H124.786ZM150.099 132.048C148.479 134.208 146.103 135.324 143.007 135.324C137.787 135.324 133.359 131.94 133.359 125.568C133.359 119.844 137.103 116.172 142.071 116.172C147.075 116.172 150.315 119.736 150.315 124.992V126.648H136.635C136.851 130.14 139.551 132.372 143.007 132.372C145.419 132.372 146.967 131.256 147.975 130.104L150.099 132.048ZM136.707 123.912H147.075C146.895 121.032 144.915 119.088 141.999 119.088C138.579 119.088 136.887 121.752 136.707 123.912Z" fill="white"/>
</svg>
