<svg width="89" height="145" viewBox="0 0 89 145" fill="none" xmlns="http://www.w3.org/2000/svg">
<path d="M1.05622 98V82.038H5.05822L10.2102 95.309H9.06022L14.2122 82.038H18.1682V98H15.5002V84.108H15.9602L10.6242 98H8.62322L3.24122 84.108H3.74722V98H1.05622Z" fill="white"/>
<path d="M33.0769 92.02C33.0769 93.17 32.8009 94.2203 32.2489 95.171C31.7122 96.1063 30.9762 96.85 30.0409 97.402C29.1056 97.954 28.0706 98.23 26.9359 98.23C25.8012 98.23 24.7662 97.954 23.8309 97.402C22.8956 96.85 22.1519 96.1063 21.5999 95.171C21.0632 94.2203 20.7949 93.17 20.7949 92.02C20.7949 90.8853 21.0632 89.8427 21.5999 88.892C22.1519 87.9413 22.8956 87.1977 23.8309 86.661C24.7662 86.1243 25.8012 85.856 26.9359 85.856C28.0706 85.856 29.1056 86.1243 30.0409 86.661C30.9762 87.1977 31.7122 87.9413 32.2489 88.892C32.8009 89.8427 33.0769 90.8853 33.0769 92.02ZM23.5089 92.02C23.5089 92.6947 23.6546 93.308 23.9459 93.86C24.2526 94.412 24.6666 94.849 25.1879 95.171C25.7092 95.4777 26.2919 95.631 26.9359 95.631C27.5799 95.631 28.1626 95.4777 28.6839 95.171C29.2052 94.849 29.6116 94.412 29.9029 93.86C30.2096 93.308 30.3629 92.6947 30.3629 92.02C30.3629 91.3453 30.2096 90.7397 29.9029 90.203C29.6116 89.651 29.2052 89.2217 28.6839 88.915C28.1626 88.593 27.5799 88.432 26.9359 88.432C26.2919 88.432 25.7092 88.593 25.1879 88.915C24.6666 89.2217 24.2526 89.651 23.9459 90.203C23.6546 90.7397 23.5089 91.3453 23.5089 92.02Z" fill="white"/>
<path d="M42.9017 89.444C42.4877 89.03 41.9817 88.708 41.3837 88.478C40.7857 88.2327 40.1723 88.11 39.5437 88.11C38.9763 88.11 38.501 88.2327 38.1177 88.478C37.7343 88.708 37.5427 89.0223 37.5427 89.421C37.5427 89.789 37.7037 90.065 38.0257 90.249C38.3477 90.433 38.8077 90.5787 39.4057 90.686L40.7167 90.939C41.9127 91.1537 42.8403 91.537 43.4997 92.089C44.1743 92.641 44.5117 93.4307 44.5117 94.458C44.5117 95.6233 44.0747 96.5433 43.2007 97.218C42.3267 97.8927 41.1843 98.23 39.7737 98.23C38.8077 98.23 37.8647 98.092 36.9447 97.816C36.0247 97.5247 35.281 97.1413 34.7137 96.666L35.8867 94.573C36.4233 95.0023 37.0367 95.3397 37.7267 95.585C38.432 95.8303 39.1067 95.953 39.7507 95.953C40.364 95.953 40.8623 95.838 41.2457 95.608C41.629 95.378 41.8207 95.0483 41.8207 94.619C41.8207 94.2357 41.6673 93.9443 41.3607 93.745C41.054 93.5457 40.617 93.4 40.0497 93.308L38.7617 93.078C37.5657 92.8787 36.615 92.5183 35.9097 91.997C35.2197 91.4757 34.8747 90.6937 34.8747 89.651C34.8747 88.8843 35.0817 88.2173 35.4957 87.65C35.925 87.0673 36.5 86.6227 37.2207 86.316C37.9567 86.0093 38.7847 85.856 39.7047 85.856C40.6247 85.856 41.4833 86.0093 42.2807 86.316C43.0933 86.6073 43.699 86.9677 44.0977 87.397L42.9017 89.444Z" fill="white"/>
<path d="M55.2024 89.559C54.8957 89.237 54.5124 88.9687 54.0524 88.754C53.6077 88.5393 53.094 88.432 52.5114 88.432C51.8827 88.432 51.2924 88.5853 50.7404 88.892C50.2037 89.1833 49.7743 89.605 49.4524 90.157C49.1304 90.6937 48.9694 91.3147 48.9694 92.02C48.9694 92.756 49.1457 93.4 49.4984 93.952C49.851 94.4887 50.311 94.9027 50.8784 95.194C51.461 95.4853 52.0743 95.631 52.7183 95.631C53.715 95.631 54.5277 95.355 55.1564 94.803L56.5134 96.735C56.0993 97.195 55.555 97.563 54.8804 97.839C54.221 98.0997 53.462 98.23 52.6034 98.23C51.53 98.23 50.5027 97.9923 49.5214 97.517C48.5554 97.0417 47.7657 96.3363 47.1524 95.401C46.539 94.4657 46.2324 93.3463 46.2324 92.043C46.2324 90.801 46.5314 89.7123 47.1294 88.777C47.7274 87.8417 48.5094 87.121 49.4754 86.615C50.4414 86.109 51.4457 85.856 52.4883 85.856C53.439 85.856 54.2594 86.017 54.9494 86.339C55.6547 86.661 56.199 87.0597 56.5824 87.535L55.2024 89.559Z" fill="white"/>
<path d="M69.8068 92.02C69.8068 93.17 69.5308 94.2203 68.9788 95.171C68.4421 96.1063 67.7061 96.85 66.7708 97.402C65.8355 97.954 64.8005 98.23 63.6658 98.23C62.5311 98.23 61.4961 97.954 60.5608 97.402C59.6255 96.85 58.8818 96.1063 58.3298 95.171C57.7931 94.2203 57.5248 93.17 57.5248 92.02C57.5248 90.8853 57.7931 89.8427 58.3298 88.892C58.8818 87.9413 59.6255 87.1977 60.5608 86.661C61.4961 86.1243 62.5311 85.856 63.6658 85.856C64.8005 85.856 65.8355 86.1243 66.7708 86.661C67.7061 87.1977 68.4421 87.9413 68.9788 88.892C69.5308 89.8427 69.8068 90.8853 69.8068 92.02ZM60.2388 92.02C60.2388 92.6947 60.3845 93.308 60.6758 93.86C60.9825 94.412 61.3965 94.849 61.9178 95.171C62.4391 95.4777 63.0218 95.631 63.6658 95.631C64.3098 95.631 64.8925 95.4777 65.4138 95.171C65.9351 94.849 66.3415 94.412 66.6328 93.86C66.9395 93.308 67.0928 92.6947 67.0928 92.02C67.0928 91.3453 66.9395 90.7397 66.6328 90.203C66.3415 89.651 65.9351 89.2217 65.4138 88.915C64.8925 88.593 64.3098 88.432 63.6658 88.432C63.0218 88.432 62.4391 88.593 61.9178 88.915C61.3965 89.2217 60.9825 89.651 60.6758 90.203C60.3845 90.7397 60.2388 91.3453 60.2388 92.02Z" fill="white"/>
<path d="M73.3842 86.063L76.2132 95.148H75.6152L78.1912 86.063H80.9052L83.4812 95.148H82.8602L85.6892 86.063H88.4032L84.5622 98H81.9172L79.3182 88.731H79.7322L77.1332 98H74.4882L70.6012 86.063H73.3842Z" fill="white"/>
<path d="M0.836189 121L6.95419 105.038H9.71419L15.8092 121H12.8882L8.01219 107.775H8.61019L3.73419 121H0.836189ZM4.28619 117.343V114.813H12.2672V117.343H4.28619Z" fill="white"/>
<path d="M18.2326 109.063L21.7976 118.309H21.0616L24.6266 109.063H27.4786L22.7176 121H20.1416L15.3806 109.063H18.2326Z" fill="white"/>
<path d="M31.7094 109.063V121H29.0644V109.063H31.7094ZM30.3984 103.957C30.843 103.957 31.2187 104.11 31.5254 104.417C31.832 104.724 31.9854 105.092 31.9854 105.521C31.9854 105.95 31.832 106.318 31.5254 106.625C31.2187 106.932 30.843 107.085 30.3984 107.085C29.9537 107.085 29.578 106.932 29.2714 106.625C28.9647 106.318 28.8114 105.95 28.8114 105.521C28.8114 105.092 28.9647 104.724 29.2714 104.417C29.578 104.11 29.9537 103.957 30.3984 103.957Z" fill="white"/>
<path d="M42.8157 116.883C42.2177 116.515 41.612 116.247 40.9987 116.078C40.4007 115.894 39.726 115.802 38.9747 115.802C38.3 115.802 37.725 115.948 37.2497 116.239C36.7897 116.515 36.5597 116.891 36.5597 117.366C36.5597 117.703 36.6594 117.987 36.8587 118.217C37.058 118.447 37.3264 118.623 37.6637 118.746C38.0164 118.869 38.4074 118.93 38.8367 118.93C39.3274 118.93 39.818 118.83 40.3087 118.631C40.7994 118.416 41.198 118.14 41.5047 117.803C41.8114 117.466 41.9647 117.09 41.9647 116.676L41.9877 118.562C41.9724 119.007 41.796 119.436 41.4587 119.85C41.1367 120.249 40.6844 120.578 40.1017 120.839C39.5344 121.1 38.898 121.23 38.1927 121.23C37.426 121.23 36.713 121.084 36.0537 120.793C35.4097 120.486 34.8807 120.049 34.4667 119.482C34.068 118.899 33.8687 118.217 33.8687 117.435C33.8687 116.638 34.091 115.963 34.5357 115.411C34.9804 114.844 35.5784 114.422 36.3297 114.146C37.081 113.855 37.9014 113.709 38.7907 113.709C39.6494 113.709 40.393 113.793 41.0217 113.962C41.6657 114.131 42.2637 114.391 42.8157 114.744V116.883ZM34.3977 110.213C34.9957 109.799 35.724 109.469 36.5827 109.224C37.4567 108.979 38.346 108.856 39.2507 108.856C41.0294 108.856 42.3633 109.293 43.2527 110.167C44.142 111.041 44.5867 112.229 44.5867 113.732V121H41.9647V113.732C41.9647 113.226 41.8267 112.789 41.5507 112.421C41.29 112.053 40.9374 111.777 40.4927 111.593C40.0634 111.409 39.5804 111.317 39.0437 111.317C38.369 111.317 37.7327 111.417 37.1347 111.616C36.5367 111.815 35.977 112.084 35.4557 112.421L34.3977 110.213Z" fill="white"/>
<path d="M53.6142 109.063V111.524H46.0472V109.063H53.6142ZM50.6932 116.86C50.6932 117.412 50.8158 117.849 51.0612 118.171C51.3218 118.493 51.7129 118.654 52.2342 118.654C52.6329 118.654 53.0238 118.554 53.4072 118.355L54.0972 120.678C53.8365 120.831 53.5145 120.962 53.1312 121.069C52.7632 121.176 52.3645 121.23 51.9352 121.23C50.6932 121.23 49.7349 120.9 49.0602 120.241C48.3855 119.566 48.0482 118.6 48.0482 117.343V106.096H50.6932V116.86Z" fill="white"/>
<path d="M58.5116 109.063V121H55.8666V109.063H58.5116ZM57.2006 103.957C57.6452 103.957 58.0209 104.11 58.3276 104.417C58.6342 104.724 58.7876 105.092 58.7876 105.521C58.7876 105.95 58.6342 106.318 58.3276 106.625C58.0209 106.932 57.6452 107.085 57.2006 107.085C56.7559 107.085 56.3802 106.932 56.0736 106.625C55.7669 106.318 55.6136 105.95 55.6136 105.521C55.6136 105.092 55.7669 104.724 56.0736 104.417C56.3802 104.11 56.7559 103.957 57.2006 103.957Z" fill="white"/>
<path d="M73.0246 115.02C73.0246 116.17 72.7486 117.22 72.1966 118.171C71.6599 119.106 70.9239 119.85 69.9886 120.402C69.0532 120.954 68.0182 121.23 66.8836 121.23C65.7489 121.23 64.7139 120.954 63.7786 120.402C62.8432 119.85 62.0996 119.106 61.5476 118.171C61.0109 117.22 60.7426 116.17 60.7426 115.02C60.7426 113.885 61.0109 112.843 61.5476 111.892C62.0996 110.941 62.8432 110.198 63.7786 109.661C64.7139 109.124 65.7489 108.856 66.8836 108.856C68.0182 108.856 69.0532 109.124 69.9886 109.661C70.9239 110.198 71.6599 110.941 72.1966 111.892C72.7486 112.843 73.0246 113.885 73.0246 115.02ZM63.4566 115.02C63.4566 115.695 63.6022 116.308 63.8936 116.86C64.2002 117.412 64.6142 117.849 65.1356 118.171C65.6569 118.478 66.2396 118.631 66.8836 118.631C67.5276 118.631 68.1102 118.478 68.6316 118.171C69.1529 117.849 69.5592 117.412 69.8506 116.86C70.1572 116.308 70.3106 115.695 70.3106 115.02C70.3106 114.345 70.1572 113.74 69.8506 113.203C69.5592 112.651 69.1529 112.222 68.6316 111.915C68.1102 111.593 67.5276 111.432 66.8836 111.432C66.2396 111.432 65.6569 111.593 65.1356 111.915C64.6142 112.222 64.2002 112.651 63.8936 113.203C63.6022 113.74 63.4566 114.345 63.4566 115.02Z" fill="white"/>
<path d="M77.907 111.616C77.9377 111.141 78.114 110.696 78.436 110.282C78.758 109.853 79.195 109.508 79.747 109.247C80.3144 108.986 80.9507 108.856 81.656 108.856C82.4534 108.856 83.1817 109.04 83.841 109.408C84.5157 109.761 85.0524 110.305 85.451 111.041C85.865 111.777 86.072 112.682 86.072 113.755V121H83.404V114.491C83.404 113.464 83.151 112.705 82.645 112.214C82.139 111.708 81.5104 111.455 80.759 111.455C80.2837 111.455 79.8237 111.578 79.379 111.823C78.9497 112.068 78.597 112.421 78.321 112.881C78.045 113.341 77.907 113.901 77.907 114.56V111.616ZM77.907 109.063V121H75.262V109.063H77.907Z" fill="white"/>
<path d="M3.90184 128.038V144H1.18784V128.038H3.90184Z" fill="white"/>
<path d="M9.81805 134.616C9.84871 134.141 10.025 133.696 10.347 133.282C10.669 132.853 11.106 132.508 11.658 132.247C12.2254 131.986 12.8617 131.856 13.567 131.856C14.3644 131.856 15.0927 132.04 15.752 132.408C16.4267 132.761 16.9634 133.305 17.362 134.041C17.776 134.777 17.983 135.682 17.983 136.755V144H15.315V137.491C15.315 136.464 15.062 135.705 14.556 135.214C14.05 134.708 13.4214 134.455 12.67 134.455C12.1947 134.455 11.7347 134.578 11.29 134.823C10.8607 135.068 10.508 135.421 10.232 135.881C9.95605 136.341 9.81805 136.901 9.81805 137.56V134.616ZM9.81805 132.063V144H7.17305V132.063H9.81805Z" fill="white"/>
<path d="M28.3438 135.444C27.9298 135.03 27.4238 134.708 26.8258 134.478C26.2278 134.233 25.6145 134.11 24.9858 134.11C24.4185 134.11 23.9432 134.233 23.5598 134.478C23.1765 134.708 22.9848 135.022 22.9848 135.421C22.9848 135.789 23.1458 136.065 23.4678 136.249C23.7898 136.433 24.2498 136.579 24.8478 136.686L26.1588 136.939C27.3548 137.154 28.2825 137.537 28.9418 138.089C29.6165 138.641 29.9538 139.431 29.9538 140.458C29.9538 141.623 29.5168 142.543 28.6428 143.218C27.7688 143.893 26.6265 144.23 25.2158 144.23C24.2498 144.23 23.3068 144.092 22.3868 143.816C21.4668 143.525 20.7232 143.141 20.1558 142.666L21.3288 140.573C21.8655 141.002 22.4788 141.34 23.1688 141.585C23.8742 141.83 24.5488 141.953 25.1928 141.953C25.8062 141.953 26.3045 141.838 26.6878 141.608C27.0712 141.378 27.2628 141.048 27.2628 140.619C27.2628 140.236 27.1095 139.944 26.8028 139.745C26.4962 139.546 26.0592 139.4 25.4918 139.308L24.2038 139.078C23.0078 138.879 22.0572 138.518 21.3518 137.997C20.6618 137.476 20.3168 136.694 20.3168 135.651C20.3168 134.884 20.5238 134.217 20.9378 133.65C21.3672 133.067 21.9422 132.623 22.6628 132.316C23.3988 132.009 24.2268 131.856 25.1468 131.856C26.0668 131.856 26.9255 132.009 27.7228 132.316C28.5355 132.607 29.1412 132.968 29.5398 133.397L28.3438 135.444Z" fill="white"/>
<path d="M38.5285 132.063V134.524H30.9615V132.063H38.5285ZM35.6075 139.86C35.6075 140.412 35.7302 140.849 35.9755 141.171C36.2362 141.493 36.6272 141.654 37.1485 141.654C37.5472 141.654 37.9382 141.554 38.3215 141.355L39.0115 143.678C38.7508 143.831 38.4288 143.962 38.0455 144.069C37.6775 144.176 37.2788 144.23 36.8495 144.23C35.6075 144.23 34.6492 143.9 33.9745 143.241C33.2998 142.566 32.9625 141.6 32.9625 140.343V129.096H35.6075V139.86Z" fill="white"/>
<path d="M43.4259 132.063V144H40.7809V132.063H43.4259ZM42.1149 126.957C42.5596 126.957 42.9352 127.11 43.2419 127.417C43.5486 127.724 43.7019 128.092 43.7019 128.521C43.7019 128.95 43.5486 129.318 43.2419 129.625C42.9352 129.932 42.5596 130.085 42.1149 130.085C41.6702 130.085 41.2946 129.932 40.9879 129.625C40.6812 129.318 40.5279 128.95 40.5279 128.521C40.5279 128.092 40.6812 127.724 40.9879 127.417C41.2946 127.11 41.6702 126.957 42.1149 126.957Z" fill="white"/>
<path d="M52.8478 132.063V134.524H45.2808V132.063H52.8478ZM49.9268 139.86C49.9268 140.412 50.0495 140.849 50.2948 141.171C50.5555 141.493 50.9465 141.654 51.4678 141.654C51.8665 141.654 52.2575 141.554 52.6408 141.355L53.3308 143.678C53.0701 143.831 52.7481 143.962 52.3648 144.069C51.9968 144.176 51.5981 144.23 51.1688 144.23C49.9268 144.23 48.9685 143.9 48.2938 143.241C47.6191 142.566 47.2818 141.6 47.2818 140.343V129.096H49.9268V139.86Z" fill="white"/>
<path d="M63.0828 141.447C63.0521 141.922 62.8758 142.375 62.5538 142.804C62.2318 143.218 61.7871 143.555 61.2198 143.816C60.6678 144.077 60.0391 144.207 59.3338 144.207C58.5365 144.207 57.8005 144.031 57.1258 143.678C56.4665 143.31 55.9298 142.758 55.5158 142.022C55.1171 141.286 54.9178 140.381 54.9178 139.308V132.063H57.5858V138.572C57.5858 139.599 57.8388 140.366 58.3448 140.872C58.8508 141.363 59.4795 141.608 60.2308 141.608C60.7061 141.608 61.1585 141.485 61.5878 141.24C62.0325 140.995 62.3928 140.642 62.6688 140.182C62.9448 139.722 63.0828 139.162 63.0828 138.503V141.447ZM63.0828 144V132.063H65.7278V144H63.0828Z" fill="white"/>
<path d="M75.1632 132.063V134.524H67.5962V132.063H75.1632ZM72.2422 139.86C72.2422 140.412 72.3649 140.849 72.6102 141.171C72.8709 141.493 73.2619 141.654 73.7832 141.654C74.1819 141.654 74.5729 141.554 74.9562 141.355L75.6462 143.678C75.3855 143.831 75.0635 143.962 74.6802 144.069C74.3122 144.176 73.9135 144.23 73.4842 144.23C72.2422 144.23 71.2839 143.9 70.6092 143.241C69.9345 142.566 69.5972 141.6 69.5972 140.343V129.096H72.2422V139.86Z" fill="white"/>
<path d="M87.4971 142.367C86.9911 142.965 86.3471 143.425 85.5651 143.747C84.7831 144.069 83.9245 144.23 82.9891 144.23C81.7625 144.23 80.6508 143.977 79.6541 143.471C78.6728 142.965 77.8908 142.237 77.3081 141.286C76.7408 140.335 76.4571 139.224 76.4571 137.951C76.4571 136.77 76.7025 135.72 77.1931 134.8C77.6991 133.865 78.3891 133.144 79.2631 132.638C80.1525 132.117 81.1491 131.856 82.2531 131.856C83.3418 131.856 84.3001 132.101 85.1281 132.592C85.9561 133.067 86.5925 133.742 87.0371 134.616C87.4971 135.49 87.7271 136.494 87.7271 137.629V138.848H78.0671V136.778H85.2661L85.0591 137.077C85.0591 136.51 84.9365 136.004 84.6911 135.559C84.4611 135.114 84.1238 134.769 83.6791 134.524C83.2498 134.279 82.7591 134.156 82.2071 134.156C81.6091 134.156 81.0878 134.294 80.6431 134.57C80.1985 134.831 79.8535 135.176 79.6081 135.605C79.3781 136.019 79.2478 136.456 79.2171 136.916L79.1941 138.457C79.1941 139.116 79.3551 139.699 79.6771 140.205C79.9991 140.711 80.4515 141.11 81.0341 141.401C81.6168 141.677 82.2608 141.815 82.9661 141.815C83.6255 141.815 84.2005 141.708 84.6911 141.493C85.1971 141.263 85.6495 140.956 86.0481 140.573L87.4971 142.367Z" fill="white"/>
<path fill-rule="evenodd" clip-rule="evenodd" d="M43.7604 65C60.6247 57.7056 73.0331 43.9889 76.7041 26.8153C79.9548 12.2819 74.1035 -0.0710509 58.4047 0.000307627H26.349C25.7305 9.64164 18.8563 16.2938 10 18.5694C12.4896 39.6281 23.9386 56.4766 43.7604 65ZM43.6971 62.5366C59.0232 55.5593 70.6546 43.1033 74.3097 26.4133C77.1561 13.4102 72.502 2.39719 58.3017 2.46062H28.3313C26.9358 11.2219 20.7039 17.549 12.458 20.3558C15.3044 39.7177 26.2539 54.7664 43.6971 62.5366Z" fill="white"/>
<path fill-rule="evenodd" clip-rule="evenodd" d="M45.7236 21.844H40.9456L47.7247 11.7983L52.0458 10.3157C52.5929 10.1254 52.4343 9.73685 52.1489 9.73685H48.0973L47.6612 5.32848C47.6496 5.26435 47.6131 5.20745 47.5595 5.17028C47.506 5.13311 47.4399 5.11872 47.3758 5.13026C47.326 5.13806 47.28 5.16145 47.2444 5.19707C47.2088 5.23269 47.1854 5.27871 47.1776 5.32848L45.8456 9.74478H41.6196C41.2628 9.74478 41.2152 10.165 41.6196 10.3236L45.4729 11.7111L36.4104 21.844H17.2468C17.0701 21.844 16.9007 21.9142 16.7758 22.0391C16.6509 22.164 16.5808 22.3334 16.5808 22.51C16.5808 22.6867 16.6509 22.8561 16.7758 22.981C16.9007 23.1059 17.0701 23.176 17.2468 23.176L33.897 25.2772C33.3341 26.292 32.3985 27.2752 32.0655 28.4487C31.9748 28.6769 31.9459 28.925 31.9818 29.168C32.0177 29.4109 32.1171 29.6401 32.27 29.8324C32.4228 30.0246 32.6237 30.1731 32.8523 30.2629C33.0809 30.3527 33.3291 30.3805 33.5719 30.3436C35.0546 30.0185 37.5363 26.9343 38.5115 25.6974L38.9 25.0869L44.8673 24.5477L45.7236 21.844Z" fill="white"/>
<path fill-rule="evenodd" clip-rule="evenodd" d="M67.6337 21.8436H50.1936L50.8199 24.3015L67.6733 23.128C67.8436 23.128 68.007 23.0603 68.1274 22.9399C68.2479 22.8195 68.3155 22.6561 68.3155 22.4858C68.3155 22.3154 68.2479 22.1521 68.1274 22.0317C68.007 21.9112 67.8436 21.8436 67.6733 21.8436" fill="white"/>
<path d="M60.0062 36.2254C60.0601 36.0611 60.1731 35.9226 60.3234 35.8369L60.4423 35.7735C60.9468 35.6798 61.4595 35.6373 61.9725 35.6466V34.4256H55.2094V35.6545H55.471C55.8606 35.6546 56.2498 35.6784 56.6365 35.7259H56.7158C56.7695 35.7415 56.8204 35.7656 56.8665 35.7972L57.033 35.94C57.2811 36.3919 57.3757 36.9123 57.3025 37.4226V43.4881C57.3025 44.5347 57.2312 44.7884 57.0805 44.9311C57.0234 44.9943 56.9565 45.0478 56.8823 45.0897L56.7872 45.1452H56.692C56.2963 45.2657 55.8795 45.3004 55.4694 45.2471C55.0592 45.1938 54.6651 45.0536 54.3134 44.836C53.8139 44.3286 53.5205 43.7577 52.9417 41.4108L47.9229 19.7971L42.3252 41.7914C42.1026 42.7118 41.7864 43.6072 41.3817 44.4633C40.9456 45.3276 39.4709 45.3989 38.6701 45.1135C38.3133 45.0025 38.2023 44.6378 38.2023 43.4881V37.4543C38.2023 36.154 38.2023 35.6466 39.5423 35.6466V34.4256H35.3876L33.009 40.6338L30.6304 34.4256H26.3965V35.6466C27.7285 35.6466 27.7285 36.4395 27.7285 37.4543V43.3058C27.7285 44.4633 27.6572 45.2959 26.2855 45.2959V46.4852H30.3291V45.2959C29.0685 45.2959 28.9257 44.7488 28.9257 43.5912V37.5971L32.2796 46.0887L35.6017 37.8508V43.4881C35.6017 44.8598 35.459 45.2959 34.1587 45.2959V46.4852H45.1003V45.2959C43.4035 45.2959 43.2608 44.6774 43.689 43.0917L44.3074 40.6655H49.0646C49.388 41.849 49.6056 43.0589 49.7148 44.281C49.7148 45.2166 49.0963 45.2959 48.129 45.2959V46.4852H61.9725V45.2959H60.8942C60.7024 45.3034 60.5123 45.2559 60.3466 45.1589C60.1808 45.062 60.0462 44.9197 59.9586 44.7488C59.9139 44.487 59.9006 44.2208 59.919 43.9559V36.9548C59.9123 36.7087 59.9417 36.463 60.0062 36.2254ZM44.7038 39.2859L46.8684 30.2313L48.7158 39.2859H44.7038Z" fill="white"/>
</svg>
